<svg xmlns="http://www.w3.org/2000/svg" enable-background="new 0 0 3800 3000" viewBox="0 0 3800 3000"><path fill="#d5efe8" d="M3335.19 861.45s-261.81-286.46-554.32-420.07c-292.51-133.61 14.29-250.88 162.17-81.04 147.87 169.85 583.86 436.06 392.15 501.11z"/><path fill="#d6edde" d="M353.04 1766.41c36.59 132.97 108.41 250.73 206.26 354.55 275.24 291.92 756.97 473.79 1245.05 573.91 339.51 63.71 657.75 21.84 950.64-111.24 248.01-116.69 477.13-301.05 609.71-581.51 21.33-45.21 40.22-92.86 56.22-143.18 114.02-356.42 14.69-759.98-280.57-1065.28-288.97-304.46-773.88-510.6-1285.27-452.57C805.33 451.69 214.4 1272.88 353.04 1766.41z"/><path fill="#a3d8c7" d="M560.61 1659.6c62.11.82 124.47-7.05 183.06-28.39 57.18-20.83 106.25-55.3 155.98-89.56 28.95-19.94 58.82-38.04 93.83-44.55 36.13-6.71 73.06-4.14 108.74 4 69.55 15.86 129.1 54.86 195.6 78.8 54.51 19.62 111.99 29.25 169.2 16.14 54.1-12.4 101.67-41.89 145.57-74.8 83.47-62.58 159.24-137.03 251.56-187.04 43.55-23.59 92.57-41.84 142.84-39.24 56.15 2.9 105.77 34.72 147.78 69.87 47.14 39.45 84.54 88.41 120.02 138.2 34.6 48.55 66.46 95.49 114.34 132.14 93.2 71.34 211.76 108.48 323.19 140.68 140.55 40.62 287.62 30.58 431.79 43.22 93.53 8.2 179.49 41.34 262.51 81.8-12.63 35.04-26.62 68.79-41.92 101.24-132.57 280.46-361.69 464.82-609.71 581.51-292.88 133.08-611.12 174.95-950.64 111.24-488.08-100.12-969.81-281.99-1245.05-573.91-97.85-103.81-169.67-221.58-206.26-354.55-12.51-44.52-18.99-91.74-19.82-140.83 73.88 20.97 150.13 33.01 227.39 34.03z" opacity=".5"/><path fill="#a3d8c7" d="M610.74 1931.01c44.09-24.41 84.48-54.23 121.67-88.17 35.77-32.64 71.31-67.12 113.93-90.84 49.63-27.62 100.37-30.46 155.31-19.77 57.69 11.23 113.35 30.42 169.8 46.39 104.31 29.52 211.66 39.72 316.88 8.36 50.07-14.92 97.46-38.07 140.89-67.01 44.55-29.68 87.62-61.41 134.34-87.74 49.03-27.63 103.07-51.06 159.98-54.16 59.31-3.23 116.09 21.7 168.64 46.36 52.7 24.72 105.96 46.97 159.57 69.63 56.11 23.71 112.09 48.08 170.06 66.99 56.62 18.47 115.42 30.42 173.57 42.98 61.19 13.21 122.62 25.31 184.21 36.55 62 11.31 124.09 22.22 186.18 33.02 58.67 10.21 116.08 24.98 174.41 36.47 79.71 15.71 166.96 19.09 243.05 50.4-5.96 14.09-12.11 28-18.54 41.63-132.57 280.46-361.69 464.82-609.71 581.51-292.88 133.08-611.12 174.95-950.64 111.24-488.08-100.12-969.81-281.99-1245.05-573.91-38.68-41.03-73.22-84.29-103.19-129.76 53.79-13.33 105.87-33.18 154.64-60.17z" opacity=".75"/><path fill="#4da061" d="M2997.93 2146.31c-108.4 3.4-213.67 33.7-318.87 57.22-103.25 23.09-205.76 18.73-308.84-3.04-98.83-20.87-195.15-52.58-295.09-68.35-92.62-14.61-186.28-15.21-268.91 34.5-68.75 41.36-122.54 103.51-186.4 151.53-70.86 53.28-151 89.02-236.52 111.63-91.67 24.24-186.95 34.61-281.65 35.05-11.24.05-22.49-.04-33.73-.27 224.25 102.17 479.45 177.56 736.43 230.28 339.51 63.7 657.75 21.84 950.64-111.24 186.65-87.82 362.58-213.98 494.73-390.57-79.06-34.11-164.65-49.47-251.79-46.74z"/><path fill="#fff" d="M636.21 742.98c0 85.12 68.99 154.14 154.14 154.14 33.63 0 64.77-10.8 90.11-29.09 34.07 11.58 75.56 18.36 120.32 18.36 111.66 0 202.98-42.27 209.6-95.62.27-2.07.41-4.14.41-6.23 0-35.75-37.93-67.18-95.35-85.35-12.64-19.6-34.67-32.6-59.73-32.6-5.67 0-11.19.69-16.47 1.95-23.32-36.62-64.24-60.93-110.85-60.93-17.35 0-33.89 3.4-49.05 9.51-25.13-17.81-55.85-28.28-88.98-28.28-32.58 0-62.79 10.11-87.67 27.36-40.17 27.83-66.48 74.24-66.48 126.78z"/><path fill="#a3d8c7" d="M687.93 682.05c0 85.12 69.02 154.14 154.14 154.14 33.64 0 64.77-10.8 90.11-29.09 34.07 11.56 75.56 18.36 120.32 18.36 62.93 0 119.4-13.42 157.88-34.69.27-2.07.41-4.14.41-6.23 0-35.75-37.93-67.18-95.35-85.35-12.64-19.6-34.67-32.6-59.73-32.6-5.67 0-11.19.69-16.47 1.95-23.32-36.62-64.24-60.93-110.85-60.93-17.35 0-33.89 3.4-49.05 9.51-25.13-17.81-55.85-28.28-88.98-28.28-32.58 0-62.79 10.11-87.67 27.36-9.48 19.97-14.76 42.3-14.76 65.85z" opacity=".1"/><path fill="#47d057" d="M867.25 1997.91c1.96 1.07 72.01 13.24 125.44-48.29 0 0-52.23-18.34-79.04 12.97-26.81 31.31-46.4 35.32-46.4 35.32zM1940.27 1874.26c1.96 1.07 72.01 13.24 125.44-48.29 0 0-52.23-18.34-79.04 12.97-26.81 31.3-46.4 35.32-46.4 35.32zM3101.12 1060.06c1.96 1.07 72.01 13.24 125.44-48.29 0 0-52.23-18.34-79.04 12.97-26.81 31.31-46.4 35.32-46.4 35.32zM3183.37 1821.9c1.15 1.91 55.58 47.67 132.71 21.36 0 0-35.92-42.12-74.84-28.55-38.92 13.58-57.87 7.19-57.87 7.19z"/><path fill="#677a4d" d="M781.01 1201.22c26.13-3.89 34.47 7.09 37.14 14.56 4.8.02 11.74 1.39 12.32 1.39v4.34l-12.09 1.1c-3.49 1.76-15.87 7.39-33.54 8.38-14.99.85-33.78-1.64-54.11-12.68-.02.01 11.77-11.36 50.28-17.09zM558.75 1667.62c17.01 20.22 12.02 33.08 7.06 39.26 2.49 4.1 4.97 10.73 5.27 11.22l-3.7 2.28-7.28-9.72c-3.33-2.05-14.61-9.64-24.72-24.17-8.58-12.33-16.3-29.63-17.56-52.73 0-.01 15.86 4.07 40.93 33.86z"/><path fill="#7fec7e" d="M2102.21 1041.27s-11.13-29.2-37.18-19.76c-26.05 9.43-14.75 66.16 29.65 77.26 32.34 8.09 64.23-51.21 50.31-75.46-13.93-24.26-42.78 17.96-42.78 17.96z"/><path fill="#33232a" d="M2531.06 887.06c27.25.04 54.28-4.23 80.54-11.37 25.58-6.96 49.85-17.8 75.41-24.74 49.72-13.51 102.49-15.93 153.73-13.35 40.88 2.06 83.49 35.64 120.21 18.24 17.32-8.2 13.05-40.37 8.88-70.4-11.85-85.42-190.27-89.54-130.68-175.58 59.6-86.04-6.19-240.66-110.13-240.58-309.68.24-149.49 305.28-210.9 367.1-61.4 61.82-56.22 3.45-116.94 34.09-27.88 14.07-67.51 69.86-34.38 96.92 42.69 34.86 108.77 19.59 164.26 19.67z"/><path fill="#f5b297" d="m2380.63 1035.24-230.73 259.62-322.03-223.55-53.36 55.64s275.2 436.27 498.31 356.43c261.4-93.53 269.06-333.45 269.06-333.45l-161.25-114.69z"/><path fill="#dd957c" d="m2380.63 1035.24-95.93 107.94c-6.17 24.33-.73 50.82 4.53 74.96 6.06 27.79 15.26 59.12 5.51 87.14-5.31 15.27-16.6 27.77-31.46 34.25-7.69 3.35-15.92 5.11-23.77 8-8.99 3.32-16.73 8.44-22.59 16.12-5.18 6.8-6.62 14.83-9.08 22.81-2.75 8.9-7.75 17.16-15.49 22.61-13.02 9.16-32.12 7.87-47.11 6.42-8.63-.83-17.2-2.17-25.76-3.54-7.38-1.18-14.77-2.1-22.07-3.71-17.47-3.85-34.76-8.87-51.03-16.37-28-12.91-50.4-33.2-70.16-56.55-11.98-14.15-23.41-28.85-34.32-43.83-5.43-7.45-11.12-15.19-18.9-20.36-8.52-5.66-18.55-6.27-28.48-5.75-5.44.29-10.94.85-16.43 1.06 100.48 119.81 257.45 266.05 394.73 216.93 261.4-93.53 269.06-333.45 269.06-333.45l-161.25-114.68z" opacity=".5"/><path fill="#61ba7a" d="M2636.21 807.47s-221.84 120.68-363.35 301.58c0 0 106.79 286.42 191.55 264.44 123.75-32.11 171.8-566.02 171.8-566.02z"/><path fill="#677a4d" d="M2382.39 1041.05c-5.05 9.38-7.95 20.38-15.25 28.33-6.62 7.2-15.02 12.25-22.8 18.05-7.48 5.57-15.01 12.36-17.27 21.78-2.18 9.11-.58 18.74-.78 27.98-.21 9.24-2.34 18.31-8.82 25.22-5.05 5.38-11.46 8.5-18.44 9.74 36.95 82.97 106.48 216.6 165.37 201.33 123.75-32.1 171.8-566.01 171.8-566.01s-195.85 126.04-253.81 233.58z" opacity=".5"/><path fill="#ffbf9f" d="m2698.57 2362.75-104.04 283.75c-18.65 6.15-37.45 12-56.31 17.39-96.53 27.93-195.49 46.33-296.76 54.79l23.04-141.8 20.32-173.71 405.74-39.67 6.8-.6 1.21-.15z"/><path fill="#dd957c" d="m2697.36 2362.9-6.8.6-405.74 39.67-14.64 125.21c24.23-15.08 54.73-18.83 83.1-16.51 16.83 1.37 34.14 3.63 49.71 10.54 7.35 3.26 14.41 7.47 19.94 13.38 5.31 5.68 9.33 12.42 13.04 19.21 3.62 6.63 6.97 13.5 11.62 19.48 4.25 5.47 9.79 9.78 15.29 13.95 7.03 5.33 15.35 9.72 21.26 16.36 15.56 17.48 5.65 46.23 23.95 62.26 1.64 1.44 3.44 2.63 5.31 3.69 8.28-2.25 16.57-4.47 24.82-6.85 18.85-5.39 37.66-11.24 56.31-17.39l104.04-283.75-1.21.15z" opacity=".5"/><path fill="#ffbf9f" d="m2927.68 2300.14-40.58 213.48c-43.1 25.66-87.31 48.95-132.12 70.02-52.68 23.94-106.16 44.91-160.45 62.86-18.65 6.15-37.45 12-56.31 17.39l-12.1-256.43 164.43-43.96 5.54-1.46 231.59-61.9z"/><path fill="#432d29" d="M2395.36 1656.62s-125.7 468.78-266.16 578.95c-82.65 64.83 8.98 116.79 112.26 138.15 164.13 33.94 207.03-605.91 153.9-717.1z"/><path fill="#3f4732" d="M2149.24 2431.34c55.22 20.32 110.73 36.46 165.88 48.92 22.73 5.17 45.38 9.7 67.97 13.59l.07.07c228.04 40.21 444.33 22.66 600.86-3.96 44.18-7.5 83.54-15.72 117.1-23.58 79.36-18.55 126.09-35.04 126.09-35.04-151.01-123.19-276.49-741.33-276.49-741.33l-567.63-31.37c-3.12 287.44-233.85 772.7-233.85 772.7z"/><path fill="#677a4d" d="M2879.24 2226.52c1.63 33.42 7.29 66.69 15.93 98.9 4.04 14.94 8.64 29.66 14.16 44.11 4.96 13.1 11.4 25.35 18.76 37.31 16.42 26.69 35.61 51.54 52.6 77.88 1.13 1.7 2.27 3.47 3.33 5.24 44.18-7.5 83.54-15.72 117.1-23.58-41.06-19.33-79.29-44.67-111.15-77.38-41.35-42.41-70.09-95.08-87.01-151.58-8.71-29.17-14.23-59.12-17.77-89.35-6.09 25.57-7.3 52.4-5.95 78.45zM2507.97 2218.07c1.66 39.4 8.96 79.84 25.31 115.94 13.42 29.62 33.56 54.83 56.55 77.52-16.95-6.32-32.39-16.56-45.52-28.97-54.75-51.76-54.88-133.61-35.81-203.25-.9 12.89-1.08 25.84-.53 38.76zM2295.58 2368.33c3.82 18.69 10.97 36.6 15.43 55.15 4.18 17.42 7.22 35.61 4.67 53.52-.14 1.13-.35 2.19-.57 3.26 22.73 5.17 45.38 9.7 67.97 13.59-21.24-24.92-41.27-50.9-56.21-80.07-8.99-17.49-15.65-36.04-18.97-55.43-3.61-21.17-5.38-42.62-5.95-64-.43-15.01-.14-30.02.71-45.03-11.54 38.37-14.87 80.28-7.08 119.01z" opacity=".5"/><path fill="#61ba7a" d="M2935.58 1215.78c9.05 9.05 4.15 333.84 62.76 464.84 58.6 131-615.25 137.19-615.25-21.98 0-306.83-57.49-297.99-20.41-486.9 26.4-134.52 170.07-370.65 315.74-370.65 239.41.01 257.16 414.69 257.16 414.69z"/><path fill="#677a4d" d="M2948.49 1404.05c-3.67-2.86-7.24-5.84-10.56-9.05-9.29-8.98-15.8-19.76-21.46-31.28-4.81-9.78-9.38-19.72-15.7-28.57-.37-.27-.7-.63-.95-1.13-.04-.08-.07-.16-.11-.23-1.28-1.71-2.49-3.46-3.94-5.06-1.13-1.25-.92-2.66-.14-3.69-7.67-16.71-14-33.99-19.18-51.65-21.01-71.57-24.02-146.92-43.37-218.83a587.264 587.264 0 0 1-31.31 56.33c-15.25 24.2-32.41 48.04-53.75 67.29-16.66 15.03-39.09 29.46-62.6 24.77-12.21-2.43-22.62-9.54-31.09-18.47-12.28-12.93-20.49-28.34-22.77-46.13-4.89-38.07 8.99-75.01 15.55-112.1a233.76 233.76 0 0 0-9.08 7.83c-23.38 21.34-43.88 46.43-60.83 73.13-7.18 11.32-14.59 23.46-18.76 36.29-4.31 13.24-6.5 27.12-8.39 40.88-3.13 22.8-5.74 46.19-20 65.18-8.88 11.82-20.58 19.93-32.63 28.19-9.81 6.72-19.69 13.4-29.08 20.71-14.73 11.46-26.38 24.69-33.72 41.99-4.54 10.7-7.81 21.93-10.76 33.16-3.65 13.86-6.06 28.15-11.02 41.63-8.34 22.7-22.32 41.31-38.9 57.7 5.18 46.33 9.14 105.12 9.14 185.69 0 159.17 673.85 152.97 615.25 21.98-29.14-65.14-42.58-178.22-49.84-276.56z" opacity=".5"/><path fill="#d5efe8" d="M2471.36 1278.18c-13.06 90.58-123.51 337.51 3.43 495.33 126.94 157.82 397.98 109.79 487.18 27.45 89.2-82.34 27.45-532.38 0-564.67-23.48-27.63-332.79 31.18-459.16 1.74-20.09-4.7-29.08 23.72-31.45 40.15z"/><path fill="#a3d8c7" d="M2605.78 1649.66h-30.18l12.5-21.65c2.1-3.63.85-8.27-2.78-10.37-3.63-2.1-8.27-.85-10.37 2.78l-19.07 33.03a7.57 7.57 0 0 0 0 7.59 7.584 7.584 0 0 0 6.57 3.79h43.33v12.23l24.41-19.81-24.41-19.82v12.23zM2687.21 1652.84l-21.7-37.5 10.58-6.12-29.37-11.2-4.93 31.05 10.58-6.12 15.11 26.13-25 .02a7.58 7.58 0 0 0-7.58 7.6c0 4.19 3.4 7.59 7.6 7.58l38.14-.03c2.71 0 5.22-1.45 6.57-3.8a7.631 7.631 0 0 0 0-7.61zM2644.03 1593.64c3.62-2.11 4.84-6.76 2.73-10.38l-19.22-32.95a7.61 7.61 0 0 0-6.59-3.77 7.605 7.605 0 0 0-6.56 3.82l-21.5 37.62-10.61-6.07 5.09 31.02 29.31-11.36-10.61-6.07 14.98-26.2 12.59 21.59a7.594 7.594 0 0 0 10.39 2.75zM2591.57 1703.82h-13.69v7.5h12.1v6.98h-12.1v8.14h13.69v7.24h-22.72v-37.09h22.72v7.23zM2614.57 1696.16c8.83 0 15.48 4.97 17.6 13h-9.94c-1.53-3.17-4.33-4.75-7.77-4.75-5.55 0-9.35 4.12-9.35 10.67s3.8 10.67 9.35 10.67c3.43 0 6.23-1.58 7.77-4.75h9.94c-2.11 8.03-8.77 12.95-17.6 12.95-10.94 0-18.65-7.77-18.65-18.87 0-11.1 7.71-18.92 18.65-18.92zM2655.28 1734.05c-10.52 0-19.08-7.87-19.08-19.02s8.56-18.97 19.08-18.97c10.57 0 18.97 7.82 18.97 18.97s-8.45 19.02-18.97 19.02zm0-8.24c5.92 0 9.77-4.28 9.77-10.78 0-6.6-3.86-10.78-9.77-10.78-6.03 0-9.83 4.17-9.83 10.78 0 6.5 3.81 10.78 9.83 10.78z"/><path fill="#a3d8c7" d="M2560.99 1279.67c80.78-4.96 386.4-36.24 386.4-36.24-27.45-3.43-372.25 14.8-397.98 15.65-25.73.86-62.3-12.9-58.33 2.36 4.83 18.52 14.6 15.22 46.75 21.44-92.37 156.31-43.83 445.09-43.83 445.09-31.23-187.11 44.43-393.8 66.99-448.3zM2652.34 1810.38s162.11 83.63 315.21-52.75c0 0-110.65 162.11-315.21 52.75z"/><path fill="#ffb598" d="M2594.91 1179.62c-2.8-6.73-29.56-53.57-44.21-39.68-14.65 13.89 12.82 54.43 12.82 54.43l31.39-14.75z"/><path fill="#a3d8c7" d="M2554.34 1195.93s122.07-291.13 268.95-325.88c0 0 7.17-33.52-18.79-27.58-25.96 5.94-114.54 59.66-174.32 170.66-59.77 110.99-75.84 182.8-75.84 182.8z"/><path fill="#d5efe8" d="M2513.39 1291.9s144.96-381.07 278.24-452.09c4.15-16.73-21.31-25.83-29.6-20.78-115.13 70.21-252.5 285.03-273.08 465.15l24.44 7.72z"/><path fill="#ffbf9f" d="M3016.45 1241.62s98.27 312.16-22.82 401.86c-131.4 97.33-456.49-378.05-456.49-378.05l54.66-43.75 257.85 178.66-25.46-154.02 192.26-4.7z"/><path fill="#61ba7a" d="M3034.22 1231.68c20.67 92.99-228.23 53.35-228.23 53.35s5.57-409.96 30.15-397.49c99.41 50.46 166.75 203.19 198.08 344.14z"/><path fill="#ffb598" d="M2594.04 1176.44s-110.49-7.97-114.3 12.42c-1.78 9.54 24.84 14.85 53.94 18.08-35.73-2.66-75.23-1.03-72.26 9.82 2.28 8.34 45 12.68 73.83 17.05-20.03-1.19-65.03-2.34-66.57 6.28-1.96 10.98 40.15 18.05 67.86 19.53-16.56.24-45.96 1.69-46.17 9.7-.18 7.09 7.83 13.6 42.7 15.32 20.34 1.01 19.5 4.87 28.84 3.51 7.21-1.05 14.79-1.33 20.18-5.03 25.97-17.8 26.97-98.1 11.95-106.68z"/><path fill="#fff" d="M2493.13 1270.65c.73-3.69 12.45-5.79 13.6-5.09 0 0-.07 9.67-.83 11.31-.77 1.65-13.5-2.52-12.77-6.22zM2469.96 1240.94c.73-3.69 12.45-5.79 13.6-5.09 0 0-.07 9.67-.84 11.31-.76 1.64-13.49-2.53-12.76-6.22zM2464.44 1215.1c.73-3.7 12.45-5.79 13.59-5.09 0 0-.07 9.67-.84 11.31-.75 1.64-13.48-2.53-12.75-6.22zM2483.59 1187.78c.73-3.69 12.45-5.79 13.59-5.09 0 0-.07 9.67-.83 11.31-.76 1.64-13.5-2.53-12.76-6.22z" opacity=".2"/><path fill="#ef9d84" d="M2555.59 1209.27c-14.28 0-32.47-2.5-33.38-2.62-.6-.08-1.02-.64-.94-1.24.08-.6.64-1.03 1.24-.94.26.04 26.23 3.6 40.31 2.32.62-.05 1.14.39 1.2 1 .06.6-.39 1.14-1 1.2-2.24.19-4.77.28-7.43.28zM2551.19 1235.5c-12.69 0-26.11-1.4-26.28-1.42-.6-.06-1.04-.61-.98-1.21.06-.6.59-1.04 1.21-.98.22.02 22.02 2.3 36.13 1.02.61-.05 1.14.39 1.2 1 .05.61-.39 1.14-1 1.2-3.16.28-6.69.39-10.28.39zM2549.82 1261.63c-12.28 0-24.76-1.4-24.92-1.42-.6-.07-1.04-.61-.97-1.22.07-.61.61-1.05 1.22-.97.2.02 20.45 2.3 34.55 1.02.62-.05 1.14.39 1.2 1 .05.61-.39 1.14-1 1.2-3.16.28-6.61.39-10.08.39zM2585.23 1268.85c-.22 0-.45-.07-.65-.21-.49-.36-.6-1.05-.24-1.54 14.47-19.91 5.83-37.67 5.74-37.85-.14-.27-.16-.6-.05-.88 6.53-17.38-3.22-31.99-3.32-32.13-.34-.5-.21-1.19.29-1.53.5-.34 1.18-.21 1.53.29.43.63 10.34 15.47 3.72 33.72 1.3 3.01 7.84 20.46-6.13 39.68-.22.29-.55.45-.89.45z"/><path fill="#efac8e" d="m1709.03 1114.73.01-.02c5.35 3.23 13.44 7 25.88 11.32 0 0-.07-.07-.21-.16 6.12 2.39 12.67 4.45 19.31 6.17 11.47 2.99 20.01 4.54 26.11 5.31.03-.01.05.01.07.02 8.99 1.12 31.15-14.26 31.15-14.26s27.54-31.73 16.51-51.8c-12.87-23.4-11.95-85.6-29.86-75.97-17.95 9.64-4.77 50.35-4.77 50.35s-.39-.37-1.16-1c-4.59-3.89-22.28-18.13-42.09-25.12l-.02-.01c-5.51-1.91-11.19-3.3-16.79-3.73-.99-.06-1.97-.13-2.95-.16-1.75-.04-3.5.03-5.23.24-.27.03-.58.06-.87.1-.86.1-1.72.24-2.57.41l-.1.02c-.01.02-.01.02-.03.04-2.09 1.08-4.25 3.01-6.1 6.39-5.97 10.9 1.82 16.96 1.82 16.96s-9.67-.72-13.14 8.81c-3.7 10.13 3.99 12.55 3.99 12.55s-10.17 2.5-12.78 10.58c-2.76 8.53 6.21 11.18 6.21 11.18s-7.46.72-10.8 10.69c-2.98 8.96 18.41 21.09 18.41 21.09z"/><path fill="#d38371" d="M1761 609.6h69.19v711.57H1761z" transform="rotate(19.932 1795.44 965.262)"/><path fill="#231f20" d="M1807.33 940.78c2.67 5.83 5.26 11.86 5.43 18.37.2 7.72-1.94 15.59-4.52 22.8-2.34 6.54-5.82 12.76-7.36 19.56-1.95 8.63-.3 17.54 2.41 25.8 1.04 3.17 2.15 6.32 3.22 9.49l142.89-394.1-65.05-23.58-102.33 282.21c8.75 12.96 18.75 25.15 25.31 39.45z" opacity=".1"/><path fill="#677a4d" d="M1949.4 642.7c-1.72 4.74-17.67 3.3-35.63-3.21s-31.13-15.63-29.41-20.37c1.72-4.74 17.67-3.3 35.63 3.21s31.13 15.63 29.41 20.37z"/><path fill="#d38371" d="M1706.84 1311.65c-1.72 4.74-17.67 3.3-35.63-3.21s-31.13-15.63-29.41-20.37c1.72-4.74 17.67-3.3 35.63 3.21s31.13 15.63 29.41 20.37z"/><ellipse cx="1918.91" cy="625.3" fill="#61ba7a" rx="287.76" ry="287.77" transform="rotate(-45.001 1918.908 625.329)"/><ellipse cx="1918.91" cy="625.3" fill="#fff" rx="258.39" ry="258.4" transform="rotate(-45.001 1918.908 625.329)"/><path fill="#e29b86" d="M1997.73 420.71c57.49-65.31-281.06 225.83-234.79 301.52 46.27 75.69 185.59 110.72 225.44 55.56s72.83-351.91 52.21-336.14c-20.61 15.77-13.47 101.05-45.03 118.65-31.53 17.6-117.09-4.09 2.17-139.59z"/><path fill="#0f1019" d="M2043.18 531.54c-.77.1-1.55.16-2.33.27-9.78 1.44-19.37 3.82-28.72 6.94-3.99 9.68-9.21 17.45-16.55 21.54-9.05 5.05-22.54 6.84-34.38 3.66a312.951 312.951 0 0 0-26.98 19.71 339.529 339.529 0 0 0-41.73 40.56c-7.38 8.52-13.16 18.34-20.93 26.52-7.05 7.41-15.22 11.98-25.33 13.53-8.53 1.3-18.16 1.05-25.49 6.28-6.08 4.34-9.07 11.62-10.95 18.6-4.57 16.93-4.07 34.79-8.46 51.76-1.54 5.94-3.93 11.54-7.11 16.54 60.11 49.83 161.19 66 194.18 20.34 24.43-33.83 46.28-158.5 54.78-246.25z" opacity=".2"/><path fill="#231f20" d="M1973.28 645.17c-.91 2.23-1.71 4.52-2.48 6.83-1.6 4.71-3.47 9.27-5.41 13.85-3.6 8.53-7.06 17.11-9.77 25.96 1.32-1.01 2.62-2.05 3.82-3.23 4.53-4.46 7.14-10.26 9.23-16.18 3.01-8.54 5.11-18.02 4.61-27.23zM1918.75 595.91c-3.63 4.09-7.06 8.35-10.38 12.69-4.02 5.25-8.24 10.41-11.53 16.17-.58 1.01-1.05 2.07-1.59 3.1 4.06-4.81 8.04-9.71 12.37-14.28 6.24-6.59 17.3-14.34 17.84-24.38-2.61 1.61-5.1 4.9-6.71 6.7zM1996.81 749.31c-7.97 2.27-16.25 2.39-23.52 6.89-2.56 1.59-3.98 3.93-5.71 6.31-2.21 3.03-4.67 5.79-7.69 8.02-12.8 9.49-30.9 10.9-46.26 9.77-15.61-1.15-33.71-5.09-43.61-18.36-5.26-7.06-7.65-15.99-9.06-24.56-.52-3.18-.61-7.17-2.28-10.01-1.93-3.29-6.76-2.44-9.91-1.93-14.88 2.42-29.76 5.98-44.93 3.92-7.03-.95-14.05-3.16-19.36-8.06-5.55-5.12-8.05-12.72-7.71-20.14.4-8.69 3.24-17.2 6.03-25.37 2.55-7.5 4.7-15.11 7.2-22.61 2.59-7.75 5.98-15.2 8.49-22.99 1.52-4.72 2.95-9.95 2.87-15.06-32.63 44.57-51.92 85.01-38.41 107.1 46.27 75.69 185.59 110.72 225.45 55.56 5.01-6.93 9.9-17.67 14.6-31.13-1.9 1.11-3.94 2.01-6.19 2.65z" opacity=".1"/><path fill="#231f20" d="M1962.73 453.61c-10.75 13.92-18.51 29.84-27.85 44.68-9.67 15.36-19.11 30.85-28.04 46.65-8.65 15.3-16.87 30.59-26.72 45.18-6.82 10.1-13.83 20.15-19.86 30.76 8.21-7.32 16.41-14.66 24.48-22.15 9.48-8.8 18.95-17.73 27.67-27.29 4.76-5.22 10.96-11.89 18.43-12.65 7.72-.78 12.1 6.01 11.5 12.99-.46 5.35-2.46 10.3-3.97 15.37 3.43-2.49 6.43-5.69 10.14-7.74 5.33-2.94 11.43-2.09 15.81 2.24 4.71 4.66 5.27 12.31 5 18.53-.25 5.4-1.22 10.7-2.2 16.01 4.95-3.07 9.59-8.27 15.39-6.43 7.44 2.36 8.89 11.25 8.66 17.9-.27 7.81-2.26 15.45-3.07 23.2-1.9 18.17-6.48 37.1-4.62 55.51 10-15.53 14.91-34.76 18.85-52.41 2.03-9.12 3.71-18.32 4.99-27.58 1.37-9.9 1.38-19.83 1.61-29.8.24-10.18 1.01-20.39 3.89-30.21 1.65-5.62 4.02-11.01 5.77-16.6 1.66-5.31 3.03-10.71 4.12-16.17 4.6-22.9 4.78-46.4 8.14-69.48.48-3.29 1.07-6.55 1.63-9.83-11.17 29.1-10.47 91.26-36.89 106-31.55 17.6-117.11-4.09 2.15-139.59 6.65-7.56 7.95-10.29 5.21-9.19-12.16 15.24-28.31 26.67-40.22 42.1z" opacity=".1"/><path fill="#61ba7a" d="M1646.03 565.71h537.7v121.53h-537.7z" transform="rotate(11.8 1915.144 626.595)"/><path fill="#fff" d="M1715.74 555.68c11.8 2.47 16.82 8.73 15 17.48l-.36 1.72-11.47-2.4.47-2.26c.82-3.91-1.08-5.85-4.94-6.66-3.86-.81-6.38.22-7.19 4.12-2.35 11.25 20.92 18.31 17.66 33.93-1.83 8.75-9.05 12.46-20.96 9.97s-17.05-8.78-15.22-17.53l.7-3.36 11.47 2.4-.82 3.91c-.82 3.91 1.32 5.82 5.18 6.62 3.86.81 6.58-.09 7.4-4 2.35-11.25-20.92-18.31-17.66-33.93 1.83-8.75 8.94-12.48 20.74-10.01zM1737 560.77l37.5 7.84-1.63 7.81-12.68-2.65-9.79 46.87-12.13-2.54 9.79-46.86-12.68-2.65 1.62-7.82zM1776.07 582.63c1.83-8.75 9.38-12.39 21.29-9.9 11.91 2.49 17.38 8.85 15.55 17.6l-5.94 28.43c-1.83 8.75-9.38 12.39-21.29 9.9-11.91-2.49-17.38-8.85-15.55-17.6l5.94-28.43zm6.07 31.51c-.82 3.91 1.3 5.9 5.16 6.7 3.86.81 6.6-.17 7.41-4.08l6.17-29.53c.82-3.91-1.3-5.9-5.16-6.7-3.86-.81-6.6.17-7.41 4.08l-6.17 29.53zM1856.61 599.87l-1.49 7.11c-1.83 8.75-8.78 12.27-20.91 9.73l-5.73-1.2-4.29 20.54-12.13-2.54 11.42-54.68 17.87 3.73c12.13 2.55 17.09 8.56 15.26 17.31zm-22.63-10.68-3.87 18.51 5.74 1.2c3.86.81 6.22-.01 7.03-3.91l1.71-8.2c.82-3.91-1.02-5.59-4.88-6.4l-5.73-1.2zM1915.84 612.24l-1.49 7.11c-1.83 8.75-8.78 12.27-20.91 9.73l-5.73-1.2-4.29 20.54-12.13-2.54 11.42-54.68 17.87 3.73c12.13 2.56 17.09 8.56 15.26 17.31zm-22.63-10.68-3.87 18.51 5.73 1.2c3.86.81 6.22-.01 7.03-3.91l1.71-8.2c.82-3.91-1.02-5.59-4.88-6.4l-5.72-1.2zM1924.84 600.02l12.13 2.54-9.79 46.86 19.96 4.17-1.63 7.81-32.1-6.71 11.43-54.67zM1990.07 670.71l-12.24-2.56-.02-10.36-14.89-3.11-4.17 9.48-11.14-2.33 23.78-52.09 17.76 3.71.92 57.26zm-24.06-23.12 11.69 2.44-.07-28.87-11.62 26.43zM2023.58 620c11.8 2.47 16.82 8.73 15 17.48l-.36 1.72-11.47-2.4.47-2.27c.82-3.91-1.08-5.85-4.94-6.66-3.86-.81-6.38.22-7.19 4.12-2.35 11.25 20.92 18.31 17.66 33.93-1.83 8.75-9.05 12.46-20.96 9.97s-17.05-8.78-15.22-17.53l.7-3.36 11.47 2.4-.82 3.91c-.82 3.91 1.31 5.82 5.18 6.62 3.86.81 6.58-.09 7.4-4 2.35-11.25-20.92-18.31-17.66-33.93 1.83-8.73 8.94-12.47 20.74-10zM2044.85 625.1l37.5 7.84-1.63 7.81-12.69-2.65-9.79 46.86-12.13-2.53 9.79-46.87-12.68-2.65 1.63-7.81zM2087.64 634.04l12.13 2.54-11.42 54.68-12.13-2.54 11.42-54.68zM2136.62 680.06l-1.52 7.26c-1.83 8.75-9.05 12.46-20.96 9.97s-17.04-8.78-15.21-17.53l5.94-28.43c1.83-8.75 9.05-12.46 20.96-9.97s17.05 8.78 15.22 17.53l-1.11 5.31-11.47-2.4 1.22-5.86c.82-3.91-1.3-5.9-5.16-6.7-3.86-.81-6.6.17-7.41 4.08l-6.17 29.53c-.82 3.91 1.32 5.82 5.18 6.63 3.86.81 6.58-.09 7.4-4l1.63-7.81 11.46 2.39z"/><path fill="#efac8e" d="M1740.14 1016.83s44.63 19.39 42.94 38.68c-.91 10.39-28.57.33-28.57.33s22.09 11.07 21.32 20.23c-1.52 18.08-29.94 2.8-29.94 2.8s23.34 10.72 21.62 20.4c-1.72 9.68-28.6-2.53-28.6-2.53s17.56 10.7 17.03 19.41c-.53 8.71-49.25 3.29-55.78-9.24-7.3-14 14.05-46.21 18.84-60.27 4.8-14.04 17.07-27.49 21.14-29.81z"/><path fill="#fff" d="m1769.16 1042.17-4 13.89s12.56 4.14 15.41-.88c2.86-5.02-11.41-13.01-11.41-13.01zM1763 1065.99s-7.37 10.44-4.97 12.94c2.4 2.5 11.51 4.76 14.28-.18 2.78-4.95-7.74-12.88-9.31-12.76zM1759.44 1090.44s-5.24 4.41-4.19 8.94c0 0 7.67 4.21 9.69.08 2.02-4.15-5.5-9.02-5.5-9.02zM1749.6 1108.93s-4.23 3.63-2.83 6.79c0 0 3.75 3.08 6.84.16s-4.01-6.95-4.01-6.95z" opacity=".2"/><path fill="#ffbf9f" d="m2688.18 721.13 29.08 119.27s-77.3 58.06-146.32 28.48l20.31-134.53 96.93-13.22z"/><path fill="#efac8f" d="M2607.91 833.15c7.91 4.34.34-18.65 6.62-25.95 4.96-5.76 12.2-7.84 19.56-8.21 8.14-.41 16.24 1.21 24.37.29 7.23-.82 14.26-2.99 20.39-6.98 9.5-6.18 15.7-15.8 20.23-26.05l-10.91-45.12-96.93 13.21c.01-.01-10.93 83.66 16.67 98.81z"/><path fill="#ffbf9f" d="M2807.19 668.97c8.16-31.53-29.27-25.46-29.27-25.46s30.44-2.53 32.38-77.14c1.94-74.61-168.51-176.09-234.18-99.11-30.06 35.24-106.82 173.89-47.99 251.32 58.82 77.42 83.98 53.55 135 42.77 43.89-9.28 77.79-65.53 77.79-65.53s52.13 27.78 66.27-26.85z"/><path fill="#33232a" d="M2531.87 489.24s10.64 6.75 25.84 14.22c4.33 2.13 25.37-39.43 56.86-35.03-31.67 10.49-35.09 44.68-31.04 46.15 21.19 7.72 44.39 12.3 60.11 4.33 0 0 67.38 63.69 107.24 57.21-37.1 56.11-1.52 55.8 17.05 64.26 18.57 8.46 34.14.31 34.14.31s101.97-123.43-32.22-229.3c-134.2-105.88-240.04-24.45-237.98 77.85z"/><circle cx="2832.64" cy="407.48" r="78.5" fill="#33232a"/><path fill="#e5bd57" d="M2761.46 374.49s75.72 37.85 93.21 108.35c0 0 30.83-115.68-93.21-108.35z"/><path fill="#33232a" d="M2794.63 679.2c.83 0 1.61-.5 1.93-1.31 7.07-18.07-11.02-28.76-11.2-28.87-1-.58-2.25-.23-2.83.76-.57.99-.23 2.25.75 2.83.62.36 15.18 9.04 9.42 23.77-.42 1.07.11 2.27 1.17 2.69.25.09.51.13.76.13z"/><path fill="#efac8f" d="M2644.15 663.93c-.81 7.74-10.97 13.03-22.67 11.8-11.71-1.23-20.55-8.49-19.74-16.24.81-7.74 10.96-13.02 22.67-11.8 11.71 1.23 20.54 8.5 19.74 16.24zM2542.99 640.54c-.81 7.74-10.97 13.03-22.67 11.8-11.71-1.23-14.58-8.12-13.77-15.86.81-7.74 4.99-13.4 16.71-12.18 11.7 1.23 20.53 8.5 19.73 16.24zM2598.55 724.34c-1.21 7.69-11.62 12.44-23.25 10.61s-20.08-9.54-18.87-17.23c1.21-7.69 11.62-12.44 23.25-10.61 11.63 1.82 20.08 9.54 18.87 17.23z"/><path fill="#33232a" d="M2595.15 715.16c-1.71 10.84-12.34 18.18-23.75 16.38-11.41-1.8-19.28-12.03-17.57-22.88 1.7-10.84 12.33-18.17 23.75-16.38 11.41 1.8 19.27 12.05 17.57 22.88zM2571.61 646.65c-1.07-.36-2.06-.86-2.99-1.5-5.89-4.08-6.19-12.36-6.2-12.7-.03-1.03.43-2 1.23-2.64 16.72-13.26 21.45-37.13 21.49-37.37a3.25 3.25 0 0 1 3.8-2.58c1.81.33 2.92 2.04 2.58 3.8-.19 1.05-4.99 25.22-22.43 40.09.34 1.91 1.25 4.7 3.26 6.09 1.88 1.28 4.69 1.32 8.34.07 1.7-.58 3.54.33 4.12 2.02a3.24 3.24 0 0 1-2.02 4.12c-4.29 1.45-8.03 1.66-11.18.6zM2633.59 597.99c-3.22 9.61-.52 19.14 6.04 21.33 6.56 2.2 14.45-3.78 17.66-13.4 3.19-9.54.52-19.14-6.04-21.33-2.91-.97-6.09-.38-9.05 1.53 2.11 1.37 3.08 3.93 2.28 6.32a5.465 5.465 0 0 1-6.96 3.47c-.97-.32-1.79-.85-2.36-1.62-.62 1.11-1.15 2.43-1.57 3.7zM2623.12 562.25s53.29 14.91 60.29 11.51c7-3.4-5.76-19.77-30.82-21.66-25.06-1.89-35.41 7.97-29.47 10.15zM2533.88 564.62c-3.22 9.61-.52 19.14 6.04 21.33 6.56 2.2 14.44-3.79 17.66-13.4 3.19-9.54.52-19.14-6.04-21.33-2.91-.97-6.09-.38-9.05 1.53 2.11 1.37 3.08 3.93 2.28 6.32a5.465 5.465 0 0 1-6.96 3.47c-.97-.32-1.79-.85-2.36-1.62-.62 1.11-1.14 2.43-1.57 3.7zM2523.41 528.88s53.29 14.91 60.29 11.51-5.76-19.77-30.82-21.66c-25.05-1.89-35.41 7.97-29.47 10.15z"/><path fill="#efac8f" d="M2761.18 698.77c-.64 2.86-3.48 4.65-6.34 4.01-2.86-.64-4.65-3.48-4.01-6.34.64-2.86 3.48-4.65 6.34-4.01 2.86.64 4.66 3.48 4.01 6.34z"/><path fill="#e5bd57" d="M2758.55 701.53c-.89 3.94-3.92 6.61-6.78 5.96-2.86-.64-4.46-4.36-3.57-8.3.89-3.94 3.93-6.61 6.78-5.96 2.87.65 4.46 4.37 3.57 8.3z"/><path fill="#61ba7a" d="M1491.93 2618.48c-3.13-.91-6.25-1.76-9.33-2.67-3.43-.96-6.85-1.97-10.28-2.97-.05 0-.05 0-.1-.05-1.11-.3-2.27-.61-3.38-1.01-.91-.25-1.81-.5-2.72-.81-3.68-1.06-7.36-2.12-11.04-3.23-1.71-.5-3.43-1.01-5.09-1.56-3.53-1.01-7.01-2.07-10.49-3.12-1.31-.35-2.57-.76-3.88-1.16-5.39-1.66-10.79-3.33-16.18-5.04-6.96-2.07-13.86-4.23-20.72-6.45-.5-.15-1.06-.35-1.56-.5-10.33-3.28-20.57-6.55-30.8-9.93-4.44-1.41-8.82-2.87-13.21-4.33-10.23-3.38-20.47-6.86-30.6-10.33-1.21-.4-2.47-.86-3.68-1.26-37.4-12.85-74.3-26.31-110.6-40.43-19.96-7.76-39.72-15.68-59.33-23.84-24.6-10.13-48.85-20.62-72.79-31.51-72.59-122.59-81.56-262.78-81.56-262.78 354.88 24.25 457.97 200.12 486.75 319.69 2.12 8.67 3.78 17.04 5.14 25.05 2.42 14.06 3.83 26.97 4.64 38.26.81 11.93.96 22.11.81 29.98z"/><path fill="#506037" d="M1269.16 2531.63c-1.53-1.81-152.9-181.66-179.77-243.66l-2.73 1.18c27.04 62.4 178.69 242.58 180.22 244.4l2.28-1.92z"/><path fill="#506037" d="M1091.48 2294.74s-7.68-70.93-30.85-66.25c-23.17 4.69 30.85 66.25 30.85 66.25zM1104.88 2315.44s-53.75-29.42-52.06-16.14c1.69 13.28 52.06 16.14 52.06 16.14zM1127.4 2350.32s-46.01-29.35-53.75-16.79c-7.75 12.56 53.75 16.79 53.75 16.79zM1154.53 2390.86s-56.68-34.42-64.56-19c-7.86 15.42 64.56 19 64.56 19zM1181.15 2430.23s-76.98-42.24-82.13-23.82c-5.14 18.42 82.13 23.82 82.13 23.82zM1219.28 2475s-95.66-41.65-98.33-27.14c-2.66 14.51 98.33 27.14 98.33 27.14zM1254.49 2514.76s-19.07-79.2-1.95-70.67c17.11 8.53 1.95 70.67 1.95 70.67zM1219.28 2475s-15.81-75.03 2.73-72.75c18.55 2.28-2.73 72.75-2.73 72.75zM1184.14 2427.5s-9.24-61.82 5.92-60.84c15.16.97-5.92 60.84-5.92 60.84zM1154.53 2390.86s-4.17-72.49 11.26-64.62c15.42 7.87-11.26 64.62-11.26 64.62zM1127.4 2350.32s-3.84-60.71 9.7-55.51c13.53 5.21-9.7 55.51-9.7 55.51zM1108.01 2322.47s-1.95-58.05 12.88-56.23c14.84 1.83-12.88 56.23-12.88 56.23z"/><path fill="#449355" d="M1730.11 2297.02c-.25 14.92-1.11 29.24-2.52 43-2.92 28.58-8.17 54.79-15.27 78.79-5.75 19.51-12.7 37.55-20.52 54.24-5.75 12.25-11.95 23.74-18.6 34.53-37.96 62.41-88.17 101.88-128.49 125.62-17.64-4.74-35.24-9.68-52.78-14.72-6.55-1.87-13.11-3.73-19.61-5.65-1.16-.35-2.32-.66-3.48-1.06-4.59-1.31-9.17-2.67-13.76-4.03-1.71-.5-3.43-1.01-5.09-1.56-3.53-1.01-7.01-2.07-10.49-3.12-20.21-40.38-32.61-78.84-38.76-115.28v-.1a347.153 347.153 0 0 1-4.03-34.58c-2.62-41.08 2.67-79.39 13.46-114.78 57.92-190.65 275.08-296.91 275.08-296.91 33.37 99.79 46.12 184.28 44.86 255.61z"/><path fill="#61ba7a" d="m1671.48 2067.35-62.41 149.41c-20.52 49.8-40.98 99.66-60.14 149.97-9.73 25.1-19.15 50.26-28.03 75.66-9.07 25.3-17.54 50.81-25.41 76.47-3.12 10.43-6.15 20.87-9.02 31.35-4.23 15.38-8.07 30.85-11.24 46.48-1.11 5.34-2.17 10.69-3.02 16.08-1.11-.3-2.27-.61-3.38-1.01-.91-.25-1.81-.5-2.72-.81.45-5.19 1.01-10.38 1.61-15.53 3.07-23.69 7.91-47.08 13.61-70.27.81-3.23 1.61-6.4 2.42-9.63 13.56-52.58 31.41-103.84 50.61-154.4 19.56-50.46 40.73-100.26 63.62-149.26 22.69-49.03 47.14-97.32 73.5-144.51z" opacity=".52"/><path fill="#506037" d="M1495.23 2558.25c.15-2.34 14.82-234.45 36.2-295.37l-2.5-1.29c-21.51 61.31-36.22 293.85-36.36 296.2l2.66.46z"/><path fill="#506037" d="M1528.55 2268.9s39.32-52.28 21.46-66.69c-17.85-14.42-21.46 66.69-21.46 66.69zM1524.27 2292.58s-16.29-59.85-23.48-49.87c-7.19 9.97 23.48 49.87 23.48 49.87zM1517.02 2332.43s-11.34-53.96-24.17-51.57c-12.83 2.38 24.17 51.57 24.17 51.57zM1509.21 2379.48s-15.05-65.35-29.75-61.18c-14.71 4.17 29.75 61.18 29.75 61.18zM1501.79 2425.37s-23.26-85.79-38.07-77.59c-14.81 8.18 38.07 77.59 38.07 77.59zM1498.43 2483.49s-35.67-99.5-46.44-92c-10.78 7.49 46.44 92 46.44 92zM1494.43 2537.9s-40.88-95.33-56.04-87.99c-15.15 7.34 56.04 87.99 56.04 87.99zM1496.3 2536.12s37.14-66.29 42.85-47.78c5.72 18.5-42.85 47.78-42.85 47.78zM1498.43 2483.49s36.64-61.1 47.17-45.61c10.53 15.49-47.17 45.61-47.17 45.61zM1505.42 2425.84s32.63-47.48 41.79-35.4c9.17 12.08-41.79 35.4-41.79 35.4zM1509.21 2379.48s42.56-50.65 47.59-33.84c5.02 16.8-47.59 33.84-47.59 33.84zM1517.02 2332.43s35.42-42.68 40.9-29.06c5.47 13.63-40.9 29.06-40.9 29.06zM1521.9 2299.54s34.97-39.51 43.4-27.12c8.43 12.4-43.4 27.12-43.4 27.12z"/><path fill="#61ba7a" d="M1619.81 2652.8c-.2-.05-.45-.1-.65-.15-24.9-6.2-49.75-12.7-74.45-19.46-3.88-1.06-7.76-2.12-11.65-3.18a42.89 42.89 0 0 1-2.97-.86c-.1.15-.2.3-.3.4.05-.15.1-.25.2-.4a48 48 0 0 1-3.83-1.06c-11.44-3.12-22.84-6.35-34.23-9.63-3.13-.91-6.25-1.76-9.33-2.67.71-11.69 3.93-20.62 3.93-20.62s1.56-2.37 4.59-6.7c8.07-11.64 26.36-37.35 51.77-69.11 1.06-1.31 2.12-2.62 3.23-3.93 16.53-20.52 35.99-43.35 57.47-66.39.66-.76 1.31-1.46 2.02-2.17a896.96 896.96 0 0 1 28.38-29.09c4.13-4.08 8.37-8.17 12.6-12.2 88.27-83.53 197.96-151.78 288.24-97.84 3.63 2.17 7.06 4.44 10.18 6.75h.05c.05.05.1.05.15.1 129.24 94.74-170.99 279.49-325.4 338.21z"/><path fill="#7fec7e" d="m1946.52 2313.7-1.31.91-115.29 78.13c-38.71 26.51-77.33 53.08-115.24 80.6-19.06 13.61-37.91 27.47-56.46 41.74a1395.75 1395.75 0 0 0-33.47 26.06c-1.01.81-1.97 1.56-2.97 2.37-6.2 4.99-12.35 10.03-18.45 15.12-17.84 15.07-35.44 30.45-51.82 47.03-1.97 2.02-3.98 4.03-5.9 6.05-1.21 1.26-2.42 2.52-3.63 3.83-1.31 1.41-2.57 2.82-3.88 4.23 0 0 0 .05-.05.05-2.72 3.07-5.39 6.15-7.96 9.33-.1.15-.2.3-.3.4.05-.15.1-.25.2-.4a48 48 0 0 1-3.83-1.06c4.03-6.15 8.42-12.05 13.06-17.79 2.42-3.08 4.89-6.1 7.41-9.12.45-.5.91-1.06 1.36-1.56 15.07-17.34 31.41-33.52 48.34-48.95.5-.45.96-.86 1.46-1.31 1.16-1.06 2.32-2.12 3.53-3.18 33.47-30.09 69.16-57.52 105.4-83.88 38.31-27.42 77.43-53.64 117.4-78.39 39.42-24.6 79.65-47.89 120.88-69.41h.05c.51-.29.96-.55 1.47-.8z" opacity=".52"/><path fill="#7dc98f" d="M1435.62 2601.89c-39.37-12-78.28-24.6-116.75-37.86-37.4-12.85-74.3-26.31-110.6-40.43-19.96-7.76-39.72-15.68-59.33-23.84 7.06-8.82 18.6-17.79 35.59-26.82 130.66-69.76 213.48 51.12 251.09 128.95z"/><path fill="#50a063" d="M1353.15 2575.63c-10.23-3.38-20.47-6.86-30.6-10.33l-53.33-37.15c-9.88-6.81-19.86-13.46-29.94-19.96-4.99-3.38-10.08-6.45-15.17-9.73-5.09-3.12-10.38-5.95-15.53-9.12 22.63 8.47 43.8 20.47 64.47 32.82 20.72 12.4 40.78 25.81 60.59 39.52 6.51 4.62 13.06 9.26 19.51 13.95z" opacity=".52"/><path fill="#506037" d="M1571.28 2602.42c28.73-18.41 147.93-93.89 190.54-106.34l-.62-2.13c-42.77 12.5-161.71 87.77-190.9 106.47l.98 2z"/><path fill="#506037" d="M1756.61 2496.99s53.17.89 51.85-16.68c-1.32-17.58-51.85 16.68-51.85 16.68zM1740.07 2504.99s26.73-37.03 16.76-37.01c-9.98.02-16.76 37.01-16.76 37.01zM1712.18 2518.41s25.97-31.32 17.39-38.2c-8.57-6.89-17.39 38.2-17.39 38.2zM1679.68 2534.73s30.71-38.74 20.03-45.99c-10.67-7.25-20.03 45.99-20.03 45.99zM1648.1 2550.77s38.36-53.03 25.22-58.54c-13.15-5.5-25.22 58.54-25.22 58.54zM1611.45 2574.84s39.66-66.9 29.17-70.22c-10.48-3.32-29.17 70.22-29.17 70.22zM1576.68 2596.84s34.26-68.27 21.43-74.37c-12.83-6.1-21.43 74.37-21.43 74.37zM1578.79 2597.2s60.34-6.77 52.46 5.1c-7.9 11.87-52.46-5.1-52.46-5.1zM1611.45 2574.84s56.97-4.75 53.56 8.75c-3.4 13.51-53.56-8.75-53.56-8.75zM1649.84 2553.24s46.59-1.11 44.46 10.01c-2.12 11.13-44.46-10.01-44.46-10.01zM1679.68 2534.73s54.01 3.63 46.75 14.31c-7.24 10.68-46.75-14.31-46.75-14.31zM1712.18 2518.41s45.26 2.78 40.16 12.31c-5.1 9.53-40.16-12.31-40.16-12.31zM1734.58 2506.65s43.11 3.93 40.39 14.74c-2.72 10.8-40.39-14.74-40.39-14.74z"/><path fill="#91d8a2" d="M1458.41 2608.68c-2.2-.63-4.37-1.29-6.53-1.95-.82-.22-1.6-.47-2.42-.72-3.36-1.04-6.72-2.07-10.08-3.14-52.44-67.58-139.4-193.29-66.13-199.16 26.5-2.14 46.01 13.69 60.36 38.09 16.99 28.98 26.76 70.06 32.34 107.74 3.52 23.77 5.37 46.16 6.37 63.28-.72-.22-1.45-.41-2.17-.66-2.86-.82-5.72-1.66-8.57-2.51-1.07-.31-2.14-.62-3.17-.97z"/><path fill="#50a063" d="M1460.6 2606.64c.31 1 .66 2.01.97 3.01-1.07-.31-2.14-.63-3.17-.97-.16-.35-.31-.69-.47-1.04l-10.96-26.06c-6.56-15.51-12.88-31.12-19.25-46.67v-.06c-.75-1.88-1.54-3.74-2.29-5.59l-21.17-52.44c-3.52-8.73-7.1-17.43-10.83-26.1-3.55-8.73-7.47-17.27-11.43-25.88 10.21 15.95 18.4 33.07 26.41 50.18 5.9 12.62 11.43 25.44 16.8 38.28 1.92 4.58 3.8 9.14 5.68 13.72 7.03 17.55 13.91 35.11 20.29 52.88l9.42 26.74z" opacity=".52"/><path fill="#7dc98f" d="M1727.59 2340.02c-12.7 27.47-40.23 50.46-38.56 57.67 1.61 7.61 14.52 11.75 23.29 21.12 5.14 5.49 8.87 12.8 8.17 23.69-1.01 13.61-14.67 23.14-28.68 30.55-15.88 8.37-32.21 14.01-30.95 19.76 1.16 5.24 6.7 9.28 12.35 14.77 5.65 5.44 11.39 12.25 13.16 22.94 3.48 21.27-56.36 34.18-53.84 49.9 1.16 7.36 2.72 8.97 4.18 12.15.4.86.81 1.81 1.16 2.97 1.16 3.88 2.12 10.33 2.47 23.74.35 13.96-9.58 25.1-21.17 33.37-24.9-6.2-49.75-12.7-74.45-19.46-17.64-4.74-35.24-9.68-52.78-14.72-6.55-1.87-13.11-3.73-19.61-5.65-1.16-.35-2.32-.66-3.48-1.06-10.74-23.14-26.41-61.65-21.98-81.06 2.12-9.58 7.86-15.43 15.22-19.46 15.22-8.32 37.15-8.92 47.23-18.75 14.92-15.22-11.95-39.82-2.07-52.17 9.78-12.85 48.9 4.23 59.99-8.01 11.09-12.95-21.63-27.57.76-52.88 22.38-25.76 34.43 1.51 59.18-3.07 24.7-2.67 55.15-135.35 95.12-91.64 3.43 4.08 6 8.17 7.81 12.3 6.45 14.51 3.78 29.28-2.52 43z"/><path fill="#50a063" d="M1718.41 2436.75c-35.69 9.88-71.18 20.57-106.36 32.01 9.68-19.26 21.88-41.23 34.53-63.16 35.34-61.15 74.55-121.84 74.71-122.34-22.68 18.1-52.07 66.29-87.31 134.54-7.91 15.32-16.13 31.61-24.6 48.8-1.26-6.55-2.52-13.11-3.78-19.71-4.89-25.66-9.83-51.47-14.77-77.53 4.23 26.82 8.52 53.38 12.75 79.7 1.21 7.41 2.37 14.77 3.58 22.13-4.13 8.27-8.22 16.58-12.45 25.2a46384.87 46384.87 0 0 0-28.18 57.92c-.2.35-.4.76-.56 1.16-.81 1.61-1.56 3.12-2.32 4.74-2.47-5.65-9.68-24.2-17.54-44.76-12.2-31.96-25.96-68.71-26.01-68.71-1.16 11.49 11.19 44.51 22.79 72.64 2.97 7.26 5.95 14.22 8.57 20.37 5.55 12.9 9.78 22.28 10.28 23.49.2-.05.35-.1.5-.15-8.97 18.4-16.79 34.43-23.04 47.23-1.41 2.86-2.71 5.51-3.95 8.04-7.22-7.46-44.61-45.34-59.74-75.95-4.83-9.89-9.23-27.83-9.24-27.85-1.24 8.21 1.07 17.46 5.49 27.08 15.51 33.28 57.66 74.54 62.19 79.37-1.47 3-2.81 5.75-3.97 8.17-.1.15-.15.25-.2.4.1-.1.2-.25.3-.4.96.3 1.97.6 2.97.86 1.46-2.97 3.13-6.4 4.99-10.18.05 0 .05-.05.05-.05.61-1.21 1.21-2.47 1.87-3.78.66-.15 1.36-.3 2.02-.45 31.81-7.41 63.77-14.01 95.88-20.01-.45-1.61-74.15 12.25-92.25 16.18-2.27.45-3.68.81-3.98.91 1.92-3.98 4.08-8.32 6.35-13.01 6.05-12.35 13.16-26.82 20.97-42.9 9.58-2.52 19.21-4.99 28.83-7.36 7.96-2.02 15.98-3.93 23.99-5.85 20.31-4.84 40.78-9.38 61.25-13.66-19.51 3.48-38.92 7.26-58.27 11.29-7.81 1.61-15.63 3.33-23.44 5.04-10.23 2.27-20.47 4.59-30.65 7.01 11.8-24.15 25.15-51.72 39.32-80.35 35.9-12.78 72.04-24.83 108.43-36.12z"/><path fill="#44353c" d="M1318.87 2124.47v439.57c-37.4-12.85-74.3-26.31-110.6-40.43v-399.14h110.6z"/><path fill="#677a4d" d="m1318.85 2366.17-110.59-34.2v-207.52h110.59z" opacity=".5"/><path fill="#cca246" d="M1598.14 1565.58c0 3.02-.05 6.05-.1 9.07-.05 2.07-.15 4.08-.25 6.15-.15 3.73-.4 7.41-.71 11.14-.15 2.47-.4 4.94-.66 7.36-.5 5.04-1.11 10.08-1.86 15.07-.05.5-.15 1.01-.2 1.51-.35 2.22-.71 4.39-1.11 6.6-1.01 6.1-2.27 12.2-3.63 18.2-.4 1.76-.81 3.48-1.26 5.24-1.26 5.04-2.62 10.08-4.08 15.02l-2.12 23.69-50 562.92c-2.02 22.84-21.12 40.33-44.06 40.33H1039c-22.89 0-42.04-17.49-44.06-40.33l-31.1-350.54-20.97-236.07c-.91-2.97-1.71-5.95-2.52-8.97-.71-2.62-1.41-5.29-2.02-7.96-.7-2.77-1.31-5.6-1.91-8.37-.5-2.17-.91-4.34-1.31-6.55-.45-2.07-.81-4.13-1.16-6.2-.45-2.62-.91-5.19-1.26-7.81-1.21-7.86-2.12-15.78-2.72-23.79-.71-8.47-1.01-17.04-1.01-25.71 53.18-.4 183.04 23.19 334.62 22.23 80.25.5 154.35-5.85 214.29-11.9 53.28-5.39 95.27-10.53 120.27-10.33z"/><path d="M1598.14 1565.58c0 3.02-.05 6.05-.1 9.07-.05 2.07-.15 4.08-.25 6.15-.15 3.73-.4 7.41-.71 11.14-.15 2.47-.4 4.94-.66 7.36-.5 5.04-1.11 10.08-1.86 15.07-.05.5-.15 1.01-.2 1.51-.35 2.22-.71 4.39-1.11 6.6-1.01 6.1-2.27 12.2-3.63 18.2-.4 1.76-.81 3.48-1.26 5.24-1.26 5.04-2.62 10.08-4.08 15.02l-1.81 19.96c-.5.86-.66 1.87-.25 2.87l-.05.86c-3.63-8.32-8.72-15.78-16.53-21.32-12.1-8.67-27.72-10.03-41.84-6.2-8.07 2.17-15.53 5.75-22.48 10.38-8.22 5.44-14.97 12.7-22.68 18.85-67.35 53.94-158.18 46.73-237.58 30.45-18.55-3.78-36.9-7.96-54.9-13.66-18.55-5.85-36.95-12.15-56.06-15.98-5.24-1.01-64.07-12.7-80.5-8.67-13.51 3.28-25.36 10.38-34.33 21.02-10.44 12.4-16.13 28.03-19.81 43.6-7.46 31.91-6.5 64.67-10.84 96.99-2.22 16.53-6.25 33.07-14.62 47.64-1.87 3.23-3.98 6.25-6.15 9.28-.05 0-.05.05-.05.05l-20.92-236.12c-.91-2.97-1.71-5.95-2.52-8.97-.71-2.62-1.41-5.29-2.02-7.96-.7-2.77-1.31-5.6-1.91-8.37-.5-2.17-.91-4.34-1.31-6.55-.45-2.07-.81-4.13-1.16-6.2-.45-2.62-.91-5.19-1.26-7.81-1.21-7.86-2.12-15.78-2.72-23.79 28.33 6.05 56.56 12.45 85.04 17.54 21.52 3.88 194.38 13.66 257.19 14.87 13.96.25 27.88.4 41.79 1.06 14.01.71 28.03 1.51 42.04 1.56 25.81.2 51.62-1.97 75.21-13.11 11.09-5.24 21.88-12 29.74-21.57 6.4-7.81 14.82-8.62 16.89-15.73 53.27-5.39 95.26-10.53 120.26-10.33z" opacity=".1"/><path fill="#44353c" d="M1480.69 1606.75c-7.36-149.48-40.49-267.75-217.13-267.75-174.29 0-209.78 118.27-217.13 267.75h434.26z"/><path fill="#677a4d" d="M1149.91 1571.09c18.14.54 34.07-5.06 48.12-16.47 5.68-4.61 10.45-10.22 16.13-14.82 6.3-5.09 13.7-8.06 21.54-9.9 11.99-2.81 24.79-2.88 37.04-3.14 12.47-.26 24.91-.42 37.37-1.12 13.3-.74 26.68-.63 39.83-3.05 12.11-2.23 25.89-7.02 30.78-19.48 2.75-7 3.03-15.88-.42-22.67-3.29-6.48-9.71-10.53-15.57-14.43-6.08-4.04-12.09-8.21-16.6-14.04-5.61-7.26-10.24-15.14-14.12-23.45-7.04-15.08-12.12-31.56-24.94-42.97-10.85-9.66-25.21-15.01-39-18.96-13.74-3.94-27.92-6.3-42.14-7.57-27.49-2.45-56.28-.97-82.83 7.24-59.89 35.11-84.08 101.34-93.88 181.92 33.21 6.17 64.64 21.89 98.69 22.91z" opacity=".5"/><path fill="#fff" d="M1233.48 2038.03h-60.39l25.01-43.32c4.19-7.26 1.71-16.55-5.56-20.74-7.27-4.19-16.55-1.71-20.74 5.56l-38.16 66.09a15.207 15.207 0 0 0 0 15.19c2.71 4.7 7.73 7.59 13.15 7.59h86.69v24.46l48.84-39.65-48.84-39.65v24.47zM1396.4 2044.38l-43.41-75.04 21.17-12.25-58.77-22.42-9.87 62.13 21.17-12.25 30.24 52.27-50.02.04c-8.39.01-15.18 6.81-15.17 15.2.01 8.39 6.81 15.18 15.2 15.17l76.32-.06c5.42-.01 10.44-2.9 13.14-7.6 2.72-4.7 2.72-10.49 0-15.19zM1310.01 1925.93c7.25-4.23 9.69-13.52 5.47-20.77l-38.45-65.93a15.16 15.16 0 0 0-13.19-7.53c-5.42.02-10.43 2.94-13.12 7.65l-43.02 75.27-21.24-12.14 10.19 62.07 58.65-22.73-21.24-12.14 29.96-52.43 25.2 43.2c4.25 7.26 13.55 9.71 20.79 5.48z" opacity=".5"/><path fill="#e29b86" d="M1295.18 1569.84c-.15.86-.3 1.71-.5 2.52-.35 1.66-.76 3.33-1.26 4.99-.4 1.31-.86 2.62-1.36 3.93-9.38.1-18.9.15-28.48.1-46.93.3-91.74-1.76-132.88-4.74-28.33-2.02-54.85-4.49-79.09-6.91-20.72-2.12-39.72-4.18-56.76-5.9-.55-149.72 142.15-476.06 118.97-391.43-41.59 151.78.15 184.14 36.7 177.04.86-.1 1.71-.3 2.57-.55.1-.05.2-.05.35-.1.86-.15 1.71-.4 2.57-.71 2.72-.76 5.34-1.82 7.86-3.03a47.01 47.01 0 0 0 4.99-2.57 50.93 50.93 0 0 0 4.64-2.97c5.24-3.68 9.68-7.96 12.85-12.55.81-1.16 1.56-2.42 2.17-3.73.86-1.61 1.56-3.28 2.12-5.04 2.37-6.91 2.92-15.02 2.37-23.84-2.72-42.14-31.76-100.16-20.87-121.94 5.7-11.39 28.83 36.95 53.64 104.3 2.17 5.95 4.39 12.05 6.6 18.25 0 .05 0 .05.05.1.15.55.35 1.11.55 1.66 2.72 7.66 5.44 15.53 8.12 23.54.55 1.61 1.11 3.23 1.61 4.84.6 1.61 1.11 3.23 1.61 4.84.55 1.61 1.11 3.23 1.61 4.84 5.9 17.9 11.65 36.24 16.99 54.49.5 1.66.96 3.33 1.46 4.99.5 1.66.96 3.33 1.41 4.94.96 3.33 1.92 6.65 2.82 9.93 3.68 13.16 7.16 26.16 10.23 38.76.66 2.57 1.31 5.14 1.92 7.71.5 2.12 1.01 4.23 1.46 6.3.76 3.07 1.46 6.1 2.12 9.12.66 3.03 1.31 6 1.92 8.92 1.36 6.45 2.62 12.65 3.73 18.7.25 1.46.5 2.87.76 4.34.25 1.26.5 2.57.66 3.83.35 1.76.6 3.48.86 5.19.96 5.7 1.71 11.19 2.32 16.43.2 1.81.4 3.58.55 5.29.55 5.24.91 10.18 1.06 14.82.05 1.01.05 1.92.05 2.87.19 7.09-.16 13.29-1.07 18.43z"/><path fill="#0f1019" d="M1295.18 1569.84c-.15.86-.3 1.71-.5 2.52-.35 1.66-.76 3.33-1.26 4.99-.4 1.31-.86 2.62-1.36 3.93-9.38.1-18.9.15-28.48.1-46.93.3-91.74-1.76-132.88-4.74-28.33-2.02-54.85-4.49-79.09-6.91-.1-.5-.2-.96-.3-1.46-1.66-8.67-2.27-18.3 2.07-26.31 5.24-9.68 15.98-14.57 24.65-20.57 10.28-7.16 16.79-16.53 20.57-28.48 4.13-13.16 5.24-27.07 8.77-40.38 6.1-22.94 14.17-45.37 24.1-66.94 5.65-12.3 12.05-24.4 19.05-36.14.86-.15 1.71-.35 2.57-.55.1-.05.2-.05.35-.1.86-.2 1.71-.45 2.57-.71 2.67-.81 5.34-1.87 7.86-3.03 1.71-.81 3.38-1.66 4.99-2.57 1.61-.96 3.18-1.92 4.64-2.97 5.24-3.68 9.68-7.96 12.85-12.55.81-1.16 1.56-2.42 2.17-3.73.86-1.61 1.56-3.28 2.12-5.04 2.32-6.96 2.87-15.02 2.32-23.79l.05-.05c8.62-8.42 17.84-16.13 27.83-22.99.76-.5 1.61-1.01 2.37-1.51.86 2.27 1.71 4.54 2.57 6.86 2.17 5.95 4.39 12.05 6.6 18.25v.1c.2.55.4 1.11.6 1.66 2.72 7.66 5.44 15.53 8.12 23.54.55 1.61 1.11 3.23 1.61 4.84.55 1.61 1.11 3.23 1.61 4.84.55 1.61 1.11 3.23 1.61 4.84 5.9 17.9 11.65 36.24 16.99 54.49.5 1.66.96 3.33 1.46 4.99.5 1.66.96 3.33 1.41 4.94.96 3.33 1.92 6.6 2.82 9.93 3.68 13.16 7.16 26.16 10.23 38.76.66 2.57 1.31 5.14 1.92 7.71.5 2.12 1.01 4.23 1.46 6.3.76 3.07 1.41 6.1 2.12 9.12.66 3.03 1.31 6 1.92 8.92 1.36 6.45 2.62 12.65 3.73 18.7.25 1.46.5 2.87.76 4.34.25 1.26.5 2.57.66 3.83.3 1.76.6 3.48.86 5.19.96 5.7 1.71 11.19 2.32 16.43.2 1.81.4 3.58.55 5.29.55 5.24.91 10.18 1.06 14.82.05.96.05 1.92.05 2.87.19 7.08-.16 13.28-1.07 18.42z" opacity=".2"/><path fill="#231f20" d="M1207.37 1432.21c.2 2.94.55 5.88.93 8.84.78 6.03 1.16 12.05 1.49 18.12.62 11.3 1.43 22.59 3.19 33.77.91-1.82 1.78-3.65 2.46-5.6 2.58-7.34 2.34-15.11 1.46-22.73-1.25-11-4.03-22.55-9.53-32.4zM1121.03 1407.34c-1.79 6.44-3.27 12.97-4.6 19.52-1.6 7.93-3.46 15.86-3.99 23.95-.09 1.42-.04 2.84-.08 4.26 1.88-7.47 3.62-14.98 5.93-22.33 3.33-10.59 11.32-25.04 6.52-36.37-2.02 3.17-2.99 8.13-3.78 10.97z" opacity=".1"/><path fill="#231f20" d="M1092.98 1227.36c-4.34 21.07-4.33 42.72-6.63 64.05-2.38 22.07-4.45 44.15-5.78 66.31-1.29 21.46-2.12 42.67-5.12 63.99-2.07 14.76-4.38 29.57-5.31 44.46 5.09-12.46 10.17-24.92 15.01-37.48 5.69-14.76 11.32-29.65 15.76-44.84 2.43-8.3 5.66-18.95 13.46-23.79 8.07-4.99 16.52.11 19.61 8.11 2.37 6.13 2.83 12.64 3.89 19.02 2.43-4.58 4.01-9.71 6.99-13.94 4.27-6.09 11.44-8.43 18.58-6.02 7.68 2.59 12.4 10.7 15.43 17.68 2.63 6.06 4.4 12.42 6.18 18.77 3.79-6.03 6.1-14.24 13.47-15.32 9.44-1.4 15.81 7.59 19.12 15.03 3.9 8.72 5.81 18.19 9.08 27.14 7.66 20.99 12.79 44.25 24.71 63.48 2.66-22.43-2.27-46.2-7.41-67.71a422.379 422.379 0 0 0-9.31-32.98c-3.8-11.61-9.13-22.53-14.22-33.62-5.2-11.32-9.83-22.95-11.94-35.28-1.21-7.06-1.49-14.25-2.57-21.34-1.02-6.73-2.42-13.4-4.15-19.98-7.23-27.63-19.64-53.56-28.34-80.72-1.24-3.87-2.34-7.78-3.49-11.67 3.35 37.98 37.47 105.91 16.35 136.28-25.23 36.27-130.9 58.35-72.54-154.55 3.26-11.87 3.21-15.58.79-12.89-5.19 23.23-16.81 44.46-21.62 67.81z" opacity=".1"/><path fill="#3f4732" d="M1130.7 1576.65c-1.36-7.46-2.17-15.27-2.32-23.44-2.77-51.47 21.98-115.94 53.99-175.68 17.9-29.69 34.88-57.72 50.01-82.47h.05c46.73-76.32 75.97-121.13 60.04-84.59-94.06 207.18 58.73 189.49 92.7 149.26 30.8-39.62-47.18-127.23-31.56-153.85.25-35.39 179.15 225.18 178.65 357.95-60.09 6.1-144.93 16.18-240.2 17.44-9.38.1-18.9.15-28.48.1-46.94.32-91.75-1.75-132.88-4.72z"/><path fill="#231f20" d="M1417.41 1469.99c.2 3.11.65 6.21 1.09 9.33.91 6.37 1.23 12.72 1.37 19.12.31 11.9.67 23.78 2.13 35.52 1.43-1.88 2.82-3.78 3.92-5.79 4.24-7.63 4.53-15.82 3.75-23.87-1.09-11.62-4.58-23.87-12.26-34.31zM1293.38 1443.76c-2.58 6.62-4.7 13.3-6.57 20.01-2.26 8.12-4.84 16.2-5.47 24.46-.12 1.45 0 2.9-.05 4.35 2.57-7.59 4.97-15.25 8.23-22.77 4.71-10.8 16.19-25.69 9.32-37.32-2.91 3.27-4.32 8.35-5.46 11.27z" opacity=".1"/><path fill="#231f20" d="M1263.41 1264c-7.75 20.53-10.13 41.75-14.97 63.01-5.06 21.99-9.46 44.21-12.26 66.58-2.72 21.66-4.26 43.18-8.33 64.72-2.82 14.91-5.63 29.82-6.13 44.75 6.53-12.4 13.41-24.92 20.18-37.62 7.95-14.93 16.13-30.1 22.7-45.61 3.6-8.47 8.44-19.36 19.61-24.43 11.54-5.24 23.46-.18 27.89 8.01 3.4 6.27 4.02 12.98 5.55 19.55 3.47-4.74 5.76-10.05 10-14.46 6.09-6.34 16.29-8.87 26.5-6.48 11 2.57 17.9 10.97 22.36 18.25 3.83 6.32 6.49 12.97 9.04 19.62 5.42-6.33 8.67-14.96 19.22-16.16 13.53-1.55 22.87 7.91 27.69 15.79 5.66 9.24 8.33 19.31 12.78 28.83 10.43 22.38 16.14 47.15 30.04 67.85 6.83-23.68 1.82-49.23-5.08-72.24-3.52-11.89-7.98-23.66-13.32-35.2-5.72-12.35-13.83-23.9-21.71-35.52-8.04-11.87-15.37-23.99-19.31-36.81-2.25-7.35-3.31-14.81-5.5-22.13-2.08-6.94-4.69-13.77-7.72-20.46-12.85-28.09-31.75-53.46-44.34-79.26-1.79-3.67-3.44-7.38-5.09-11.04 5.68 35.58 59.06 103.56 31.94 136.2-33.97 40.26-186.74 57.93-92.66-149.25 4.33-11.3 4.48-14.67 1.86-12-6.91 21.86-22.24 42.77-30.94 65.51z" opacity=".1"/><path fill="#39b54a" d="M1285.33 1442.85c-1.29.15-2.6.21-3.91.22-4.57.03-8.61.73-11.94 4.14-1.44 1.48-2.76 3.09-4.48 4.25-1.83 1.23-4.03 1.78-6.21 1.91-1.62.1-3.23-.03-4.82-.3.61 5.37.47 10.86-.43 16.31-7.04 42.73 42.2 124.79 42.7 125.62l.05.07.03.08c1.04 2.5 14.22 1.28 32.52-6.32 18.3-7.6 28.47-16.08 27.43-18.58l-.04-.12c-.27-.93-27.34-93.11-61.42-118.44-3.5-2.59-6.67-5.56-9.48-8.84z"/><path fill="#e6e7e8" d="M1353.51 1550.01c4.82 13.74 7.54 23.08 7.54 23.08 1.75 4.22-11.6 13.78-29.82 21.35-18.22 7.57-34.41 10.29-36.17 6.07 0 0-5.46-9.02-12.63-22.83-10.96-21.09-25.9-53.29-31.46-81.45-2.16-10.94-2.92-21.26-1.46-30.09 1.85-11.23.63-22.74-3.74-33.24l.38.91s6.25-5.95 13.57-8.98c7.31-3.04 15.94-3.27 15.94-3.27 4.19 9.95 10.99 18.56 19.65 25 8.28 6.16 16.15 15.9 23.37 27.33 15.15 23.89 27.45 55.14 34.83 76.12z" opacity=".8"/><path fill="#39b54a" d="M1278.48 1424.81c-.61-1.46-8.26.33-17.1 4.01-8.84 3.67-15.51 7.83-14.91 9.29.2.47.88 2.12 1.08 2.59.61 1.46 8.26-.33 17.1-4.01s15.51-7.83 14.91-9.29c-.2-.47-.88-2.12-1.08-2.59z"/><path fill="#8dc63f" d="m1240.83 1424.52 4.73 11.39c.85 2.05 8.71.73 17.54-2.94 8.84-3.67 15.31-8.31 14.46-10.36l-4.73-11.39-32 13.3z"/><path fill="#39b54a" d="M1272.84 1411.22c.85 2.05-5.62 6.68-14.46 10.36-8.84 3.67-16.69 4.99-17.54 2.94-.85-2.05 5.62-6.68 14.46-10.36 8.83-3.67 16.68-4.99 17.54-2.94zM1247.52 1435.8c.03-.01-1.67-6.84-3.29-8.31.03 0 1.53 6.66 3.29 8.31zM1249.87 1435.21c.03-.01-1.73-6.82-3.34-8.26.03-.01 1.59 6.64 3.34 8.26zM1252.19 1434.56c.02-.01-1.78-6.8-3.39-8.21.03 0 1.64 6.63 3.39 8.21zM1254.47 1433.87c.02-.01-1.84-6.79-3.44-8.16.02-.01 1.69 6.61 3.44 8.16zM1256.72 1433.12c.02-.01-1.9-6.77-3.5-8.12.03-.01 1.75 6.6 3.5 8.12zM1258.93 1432.32c.02-.01-1.95-6.77-3.55-8.08.03-.01 1.81 6.6 3.55 8.08zM1261.13 1431.47c.02-.01-2.01-6.76-3.61-8.05.02-.01 1.86 6.6 3.61 8.05zM1263.3 1430.57c.02-.01-2.06-6.76-3.67-8.01.02-.02 1.91 6.58 3.67 8.01zM1265.44 1429.61c.02-.01-2.12-6.76-3.73-7.98.03-.02 1.98 6.58 3.73 7.98zM1267.57 1428.59c.02-.01-2.18-6.76-3.79-7.96.03-.01 2.03 6.6 3.79 7.96zM1269.68 1427.52c.02-.01-2.23-6.77-3.86-7.94.03-.01 2.09 6.6 3.86 7.94zM1271.78 1426.39c.02-.01-2.29-6.78-3.92-7.92.03-.01 2.14 6.61 3.92 7.92zM1273.87 1425.19c.02-.01-2.35-6.79-3.99-7.9.03-.01 2.2 6.63 3.99 7.9zM1271.89 1416.05c.03-.02 2.26 6.64 4.06 7.89.02-.02-2.41-6.81-4.06-7.89z"/><path fill="#fff" d="M1352.39 1546.84c.38 1.08.76 2.15 1.12 3.17-23.49 9.2-44.67 12.96-71.09 27.67-.53-1.01-1.07-2.06-1.61-3.12-10.32-20.19-23.41-49.02-29.14-74.98-.26-1.12-.48-2.25-.71-3.36 22.55-8.55 48.77-13.64 67.71-22.35.53.83 1.05 1.66 1.56 2.5 13.71 22.36 24.96 50.35 32.16 70.47z"/><path fill="#39b54a" d="M1352.39 1546.84c-23.51 8.92-45.08 14.24-71.58 27.73-10.32-20.19-23.41-49.02-29.14-74.98 23.02-8.5 48.63-14.82 68.56-23.2 13.71 22.34 24.96 50.33 32.16 70.45z"/><path fill="#e8e6d4" d="m1316.62 1542.15-15.14 6.29a.986.986 0 1 0 .76 1.82l15.18-6.31c.55-.23.78-.9.46-1.43-.26-.42-.81-.56-1.26-.37zM1323.4 1534.1l-32.35 13.44a.986.986 0 1 0 .76 1.82l32.35-13.44c.5-.21.74-.78.53-1.29a.993.993 0 0 0-1.29-.53zM1289.92 1544.69l15.14-6.29a.986.986 0 1 0-.76-1.82l-15.18 6.31a.98.98 0 0 0-.45 1.43c.25.43.8.56 1.25.37zM1308.46 1536.99l13.71-5.7c.45-.19.74-.67.63-1.15a.982.982 0 0 0-1.34-.69l-13.76 5.72a.986.986 0 1 0 .76 1.82zM1285.04 1513.51c.12.29.11.6-.02.93-.13.33-.32.66-.58.98-.25.32-.53.63-.84.92-.3.29-.57.53-.8.73.07.16.13.32.19.5.06.17.12.34.17.52.23-.24.5-.48.81-.74.31-.25.62-.45.94-.58.26-.11.48-.15.69-.12.2.02.35.15.44.38.1.25.09.52-.03.8-.13.28-.3.56-.53.83-.23.27-.48.53-.75.77s-.51.43-.7.59l.3.75.27.75c.04.13.09.28.14.48.05.19.08.39.09.59 0 .2-.03.39-.1.56a.67.67 0 0 1-.4.39c-.18.08-.38.06-.57-.04-.2-.1-.39-.25-.59-.46-.19-.21-.38-.45-.56-.72-.18-.28-.35-.55-.5-.83a7.88 7.88 0 0 1-.38-.78c-.11-.24-.18-.43-.24-.56-.04-.1-.1-.25-.18-.44-.08-.2-.16-.41-.25-.65-.09-.24-.19-.49-.28-.75l-.26-.75a4.96 4.96 0 0 1-.18-.65c-.04-.19-.06-.34-.05-.44.03-.21.19-.47.49-.78.3-.32.65-.63 1.04-.94.4-.31.79-.6 1.19-.85.39-.26.71-.43.94-.53.11-.04.21-.08.32-.11a.88.88 0 0 1 .32-.04c.1 0 .2.03.28.07.05.03.12.11.17.22zM1292.48 1513.04c.22.52.27 1.05.16 1.59-.11.54-.33 1.06-.67 1.57.22.12.45.28.7.46s.49.38.72.6c.23.22.44.45.63.69.19.24.33.47.42.7.1.24.12.49.07.74-.06.25-.25.44-.57.58-.27.11-.56.1-.85-.05-.29-.15-.58-.34-.87-.6s-.56-.51-.82-.79a7.35 7.35 0 0 0-.69-.64c-.14.11-.27.23-.4.35l-.39.36c.06.17.14.41.24.71.1.3.17.61.22.93.05.32.04.62-.02.89-.06.28-.22.47-.49.58-.29.12-.56.11-.8-.03a2.1 2.1 0 0 1-.64-.59c-.18-.25-.34-.52-.47-.81-.13-.29-.23-.52-.3-.68-.15-.36-.29-.71-.41-1.07-.13-.35-.26-.71-.41-1.07-.14-.33-.28-.65-.43-.97-.15-.32-.29-.65-.43-.98-.03-.08-.07-.17-.12-.29-.05-.12-.09-.24-.13-.37-.04-.13-.07-.26-.1-.38a.681.681 0 0 1-.02-.31c.02-.2.16-.43.41-.71.25-.27.54-.54.87-.81.33-.27.66-.51.99-.72.33-.21.58-.36.76-.43.45-.19.88-.28 1.28-.28s.77.08 1.1.23c.33.15.62.37.87.64.25.28.45.6.59.96zm-2.38 1.17c-.08-.2-.2-.33-.35-.38-.15-.06-.34-.04-.58.06-.18.07-.34.17-.5.3-.16.13-.3.26-.42.39.28.59.55 1.18.78 1.77.16-.13.32-.28.48-.44.16-.16.3-.34.41-.53.11-.19.19-.38.23-.58.06-.19.04-.39-.05-.59zM1300.46 1514.66c.06.14.07.3.04.48-.03.17-.18.4-.43.71-.25.31-.55.63-.88.95-.33.32-.66.61-.99.88-.32.26-.58.43-.75.51-.12.05-.28.09-.47.11a3.707 3.707 0 0 1-1.15-.05c-.18-.04-.32-.1-.42-.16-.06-.04-.13-.13-.23-.28-.1-.15-.2-.32-.31-.53-.11-.2-.22-.42-.34-.65-.12-.23-.23-.45-.33-.66-.1-.21-.19-.4-.27-.56-.07-.17-.13-.29-.16-.36-.12-.28-.24-.61-.37-.98s-.24-.76-.33-1.15a6.88 6.88 0 0 1-.17-1.17c-.02-.39.02-.74.12-1.06.03-.09.13-.22.28-.37.15-.15.34-.32.56-.49.22-.17.47-.35.73-.53.27-.18.52-.35.78-.5.25-.15.48-.29.69-.41.21-.12.37-.2.49-.25.13-.05.27-.08.41-.08s.27.02.39.07.22.11.31.2c.09.08.16.18.21.29.04.1.06.19.06.27 0 .08-.02.18-.04.29-.05.14-.18.33-.41.58-.23.25-.48.52-.75.79-.28.27-.54.52-.8.76-.26.23-.44.4-.55.49.04.19.07.38.11.58.03.2.08.39.14.58.22-.24.48-.48.78-.73.3-.25.6-.44.91-.57.63-.26 1.05-.12 1.27.41.05.13.07.25.06.38-.02.12-.06.24-.12.36-.06.11-.14.22-.23.33l-.28.31c-.23.25-.48.48-.75.7l-.81.66.03.22c.01.08.03.15.06.22.04.11.1.21.16.31s.12.2.19.3c.09-.07.24-.19.45-.36.21-.17.42-.34.65-.51.23-.17.45-.34.67-.48.22-.15.38-.25.5-.29.13-.06.27-.08.4-.08s.26.03.37.07c.11.05.21.11.31.2.1.04.17.14.21.25zM1302.67 1506.45c.07.18.07.35 0 .54-.07.18-.18.35-.32.51l-.38.47c-.13.16-.24.33-.33.51-.09.18-.15.36-.18.54-.03.18 0 .36.07.55.07.16.17.29.31.38.14.09.3.18.48.25s.37.14.58.21c.21.07.41.16.61.27.2.11.38.25.55.42.17.17.32.39.43.66.08.19.12.42.13.7.01.28-.02.57-.08.88-.06.31-.15.62-.27.94-.12.32-.27.62-.43.9-.17.28-.36.53-.58.75-.22.22-.45.38-.7.48-.27.11-.54.15-.81.11-.27-.04-.45-.19-.56-.45-.07-.18-.09-.36-.06-.55.04-.19.09-.38.18-.58.08-.2.19-.39.3-.59.12-.2.22-.4.31-.58.09-.19.15-.37.19-.55.04-.18.03-.35-.04-.51-.09-.22-.28-.41-.55-.57-.28-.16-.58-.31-.9-.47s-.63-.32-.92-.51a1.47 1.47 0 0 1-.6-.67c-.14-.33-.18-.71-.12-1.16.05-.45.18-.88.37-1.32.19-.43.45-.83.76-1.19s.67-.62 1.05-.79c.31-.13.61-.16.89-.09.31.07.51.24.62.51zM1310.1 1505.1c.26.63.51 1.27.74 1.92.23.65.45 1.3.66 1.95.04.12.09.27.17.47s.14.41.21.65c.07.24.12.48.18.72.05.25.07.48.05.71-.02.22-.07.43-.17.6a.91.91 0 0 1-.46.4c-.18.08-.36.11-.54.1-.17-.01-.33-.05-.48-.12a1.29 1.29 0 0 1-.64-.69c-.1-.25-.2-.51-.29-.77-.09-.26-.17-.53-.24-.79l-1.26.66c.06.21.13.46.21.75.08.29.13.58.15.88s-.03.57-.14.83c-.11.26-.33.46-.65.59-.2.08-.39.11-.55.09s-.31-.08-.45-.18c-.13-.09-.25-.21-.34-.34-.1-.14-.18-.27-.23-.41-.19-.46-.36-.92-.5-1.39-.14-.47-.3-.94-.47-1.4-.18-.49-.37-.97-.58-1.45-.2-.48-.4-.97-.58-1.46l-.21-.57c-.08-.21-.14-.43-.16-.64-.02-.21.01-.41.09-.59.08-.19.26-.34.53-.45.38-.16.7-.19.97-.1s.49.25.68.47c.18.22.34.47.45.76.12.28.23.54.32.77.13.3.24.61.35.91.1.3.21.6.31.91l1.34-.77c-.15-.38-.29-.75-.43-1.12-.14-.37-.28-.74-.4-1.12-.06-.18-.13-.37-.21-.57-.07-.2-.11-.4-.12-.59-.01-.19.04-.37.14-.55.1-.17.3-.32.59-.44.25-.1.47-.13.68-.07.2.06.39.15.55.29.17.14.31.3.42.48.12.18.21.35.28.51l.03.16zM1290.83 1529.34l.12.28c.11.29.22.59.32.92.11.33.19.66.26 1 .07.34.1.67.09 1.01 0 .34-.07.66-.19.97-.12.31-.31.59-.56.85-.25.26-.6.48-1.04.66-.48.2-.93.28-1.36.26-.43-.03-.82-.13-1.18-.32s-.67-.43-.93-.74-.47-.64-.62-1.01c-.07-.16-.12-.35-.16-.56-.04-.21-.05-.43-.02-.64.03-.21.09-.41.2-.59.11-.18.28-.32.52-.42.26-.11.47-.12.65-.06.18.07.33.18.47.33.13.15.25.33.35.53.1.2.21.39.31.55s.21.3.33.39c.12.09.25.11.41.04.18-.08.3-.21.35-.39.05-.18.06-.37.03-.58-.03-.21-.08-.41-.14-.6-.07-.2-.12-.35-.16-.45-.18-.43-.39-.82-.64-1.2-.25-.37-.53-.74-.82-1.11-.15-.19-.31-.38-.47-.57-.16-.19-.29-.4-.38-.62-.11-.26-.12-.5-.02-.73.09-.23.29-.41.6-.54.23-.09.43-.13.59-.11.17.02.35.09.54.18.3.15.58.35.85.6.26.25.5.52.72.81s.41.6.58.91c.14.37.29.66.4.95zM1298.82 1526.3c.13.31.25.64.35.98.1.35.17.69.21 1.04.04.35.04.69 0 1.04-.04.34-.13.67-.29.97-.15.31-.37.59-.65.85s-.65.48-1.1.67c-.66.27-1.29.38-1.89.32-.6-.06-1.15-.23-1.65-.51s-.93-.64-1.31-1.09c-.37-.45-.66-.92-.87-1.42l-.06-.15c-.02-.05-.03-.09-.04-.13-.06-.16-.13-.39-.22-.67s-.18-.59-.25-.92c-.08-.33-.14-.68-.19-1.04-.05-.36-.06-.7-.03-1.02s.11-.6.23-.84c.12-.25.32-.43.58-.54.19-.08.38-.1.55-.06.17.04.33.12.48.24.15.11.27.24.37.39s.18.29.24.43c.09.21.15.42.18.65.04.23.08.46.12.68.07.36.14.71.23 1.05.09.35.21.69.35 1.03.07.18.17.38.3.62.13.24.28.46.47.66.19.2.39.34.62.44s.49.09.77-.03c.27-.11.46-.28.55-.51.1-.23.14-.47.13-.72-.01-.25-.06-.51-.14-.76-.08-.25-.15-.47-.23-.64-.21-.5-.46-.98-.76-1.43s-.63-.88-.99-1.31a2.876 2.876 0 0 1-.48-.71.86.86 0 0 1-.01-.65c.08-.22.25-.38.52-.49.22-.09.46-.1.71-.03.25.07.5.19.75.37s.49.39.72.64c.23.25.45.51.65.77s.38.51.53.76c.15.25.26.46.34.62.04.07.08.14.11.22.03.07.06.15.1.23zM1302.58 1520.35c.06.14.08.29.05.43-.03.15-.09.28-.18.41-.09.13-.2.25-.33.37s-.26.21-.39.3c.34.87.65 1.71.92 2.53.27.82.53 1.68.76 2.59l.08-.03c.14-.06.29-.1.43-.13.15-.03.29-.04.43-.02s.26.06.36.13c.11.07.19.17.24.31.07.17.07.35 0 .54-.07.18-.2.36-.37.54-.17.18-.37.35-.6.52-.23.17-.47.32-.71.46a9.792 9.792 0 0 1-1.25.63c-.11.04-.24.09-.4.15-.16.06-.31.09-.47.11-.15.02-.29.01-.42-.03a.397.397 0 0 1-.27-.25.782.782 0 0 1-.06-.47c.02-.16.08-.31.16-.46.08-.15.19-.29.32-.41.13-.13.27-.24.41-.33-.11-.44-.23-.88-.35-1.32-.12-.44-.26-.87-.42-1.3-.16-.44-.32-.88-.48-1.31-.16-.43-.32-.86-.47-1.29-.06.03-.11.06-.17.09-.05.03-.1.05-.14.07-.12.05-.26.09-.41.13-.15.04-.3.05-.45.05-.15-.01-.28-.03-.4-.08s-.2-.14-.26-.27c-.11-.26-.07-.52.11-.79s.43-.53.74-.76c.31-.24.64-.45.99-.63s.63-.32.85-.41c.12-.05.29-.11.5-.18.21-.07.42-.12.64-.15.22-.03.42-.03.61 0 .21.01.33.1.4.26zM1309.42 1519.78c.06.14.1.3.13.48s.02.35-.01.52c-.03.17-.1.33-.2.48-.1.15-.26.27-.46.35-.31.13-.56.18-.75.14a.871.871 0 0 1-.47-.23c-.12-.12-.22-.26-.29-.42-.07-.16-.14-.31-.21-.45a.924.924 0 0 0-.24-.32c-.09-.07-.21-.08-.37-.01-.18.07-.31.19-.39.36s-.14.36-.17.57c-.02.21-.02.45 0 .69.03.25.06.49.11.72.05.23.11.45.17.65.06.2.12.36.17.48.07.16.15.35.26.56.11.21.23.41.39.58.15.17.33.3.53.38.2.08.43.07.7-.04.18-.07.34-.16.49-.27.15-.11.3-.22.45-.34.15-.12.3-.23.45-.34.16-.11.32-.2.5-.27.2-.08.4-.08.59 0s.32.22.39.39c.1.24.11.51.02.79a2.9 2.9 0 0 1-.42.82c-.19.27-.42.51-.69.73-.27.22-.52.38-.77.48-.64.26-1.22.36-1.77.3-.54-.06-1.03-.24-1.47-.51a4.1 4.1 0 0 1-1.13-1.07c-.32-.43-.58-.89-.78-1.37-.13-.32-.24-.68-.33-1.09a7.416 7.416 0 0 1-.09-2.61c.07-.45.19-.87.37-1.26s.41-.75.71-1.07c.3-.32.67-.57 1.11-.75.43-.18.83-.24 1.2-.17.37.06.7.2.99.42.3.21.55.47.76.78.22.31.39.62.52.92zM1317.38 1521.18c.06.14.07.3.04.48-.03.17-.18.4-.43.71-.25.31-.55.63-.88.95-.33.32-.66.61-.98.88-.32.26-.58.43-.75.51-.12.05-.28.09-.47.11a3.707 3.707 0 0 1-1.15-.05c-.18-.04-.32-.1-.42-.16-.06-.04-.13-.13-.23-.28-.1-.15-.2-.32-.31-.53-.11-.2-.22-.42-.34-.65-.12-.23-.23-.45-.33-.67-.1-.21-.19-.4-.27-.56-.07-.17-.13-.29-.16-.36-.12-.28-.24-.61-.37-.98s-.24-.76-.33-1.15a6.88 6.88 0 0 1-.17-1.17c-.02-.39.02-.74.13-1.06.03-.09.13-.22.28-.37.15-.15.34-.32.56-.49.22-.17.47-.35.73-.53.27-.18.52-.35.78-.5.25-.15.48-.29.69-.41s.37-.2.49-.25c.13-.06.27-.08.41-.08s.27.02.39.07.22.11.31.2c.09.08.16.18.21.3.04.1.06.19.06.27 0 .08-.02.18-.04.29-.05.14-.18.33-.41.58-.23.25-.48.52-.75.79-.28.27-.54.52-.8.76-.26.23-.44.4-.55.49.04.19.07.38.11.58.03.2.08.39.14.58.22-.24.48-.48.78-.73.3-.25.6-.44.91-.57.63-.26 1.05-.12 1.27.41.05.13.07.26.06.38-.02.12-.06.24-.12.36-.06.11-.14.22-.23.33l-.28.31c-.23.25-.48.48-.75.7l-.81.66.03.22c.01.08.03.15.06.22.04.11.1.21.16.31s.12.2.19.3c.09-.07.24-.19.45-.36.21-.17.42-.34.65-.51.23-.17.45-.34.67-.48.22-.15.38-.25.5-.29.13-.05.27-.08.4-.08.14 0 .26.03.37.07.11.05.21.11.31.2.08.05.15.14.19.25z"/><path fill="#fff" d="M1301.96 1477.27c4.15 9.99-.58 21.46-10.57 25.61-9.99 4.15-21.46-.58-25.61-10.58-4.15-9.99.58-21.46 10.58-25.61 9.98-4.15 21.45.59 25.6 10.58z"/><path fill="#e8e6d4" d="M1299.04 1478.48c3.48 8.38-.49 18-8.87 21.48-8.38 3.48-18-.49-21.48-8.87-3.48-8.38.49-18 8.87-21.48 8.38-3.48 18 .49 21.48 8.87z"/><path fill="#39b54a" d="M1282.17 1490.45c-.82 2.96-5.83 2.81-6.76 1.43-.91-1.34-.2-3.82 1.68-3.94 0 0-5.93-2.44-4.16-6.23 1.76-3.79 6.62-.4 6.62-.4s-.31-2.27 1.55-3.02c2.16-.88 6.23 3.32 3.68 6.48 0 0 2.74 2.13 1.94 4.78-.95 3.12-4.55.9-4.55.9z"/><path fill="#231f20" d="M1285.38 1486.25c-.37-.47-.62-1.03-.94-1.53-.31-.47-.65-.95-1.18-1.18-.42-.18-.89-.2-1.34-.26-.46-.06-.86-.18-1.23-.47-.18-.14-.35-.3-.55-.41-.09-.05-.19-.12-.28-.04-.11.09-.15.3-.18.43-.03.18-.05.36-.04.55.03 1.07.76 1.9 1.57 2.52.73.56 1.67.82 2.33 1.47.3.29.58.71.57 1.14 0 .25-.09.45.04.68.12.21.24.39.26.65.03.4-.22.66-.62.66-.28 0-.64-.11-.89.06-.06.04-.09.09-.11.17v.08c1.07.48 3.23 1.11 3.94-1.21.25-.83.16-1.62-.1-2.3-.47-.27-.9-.57-1.25-1.01z" opacity=".25"/><path fill="#009444" d="M1282.24 1482.66c-.13.01-.23.13-.22.26.19 2.45-1.35 3.31-1.8 3.5-1.98-1.5-3.33-2.71-3.37-2.74a.239.239 0 0 0-.34.02c-.09.1-.08.25.02.34.19.17 2.4 2.16 5.32 4.18-.56.4-1.92 1.28-3.2 1.24-.13 0-.24.1-.25.23 0 .13.1.24.23.25 1.56.05 3.15-1.06 3.63-1.43 3.2 2.18 7.14 4.3 10.2 4.18.11 0 .19-.08.22-.17.01-.02.01-.05.01-.08 0-.13-.12-.24-.25-.23-3.53.13-8.44-2.97-11.81-5.47.5-.28 1.33-.91 1.69-2.12.14-.48.21-1.06.16-1.73.01-.14-.11-.24-.24-.23z"/><path fill="#39b54a" d="M1284.55 1485.8c-2.82 1.23-5.86-2.75-5.38-4.34.47-1.55 2.84-2.57 4.11-1.18 0 0-1.85-6.14 2.2-7.16 4.05-1.03 4.49 4.87 4.49 4.87s1.57-1.67 3.32-.7c2.04 1.12 1.36 6.93-2.7 6.94 0 0 .08 3.47-2.48 4.52-3.01 1.24-3.56-2.95-3.56-2.95z"/><path fill="#009444" d="M1290.63 1480.93c-.09-.1-.24-.1-.34-.01-1.78 1.7-3.41 1.04-3.85.82-.09-2.48 0-4.3 0-4.34.01-.13-.09-.24-.23-.25-.13-.01-.24.09-.25.23-.01.26-.15 3.22.12 6.76-.67-.18-2.2-.68-2.98-1.7a.231.231 0 0 0-.34-.04c-.1.08-.12.23-.04.34.95 1.24 2.81 1.77 3.41 1.91.33 3.86 1.18 8.26 3.2 10.55.07.08.18.1.27.06.02-.01.05-.02.07-.04.1-.09.11-.24.02-.34-2.33-2.65-3.03-8.42-3.22-12.61.53.21 1.54.46 2.71-.03.46-.19.95-.5 1.45-.97.09-.09.09-.25 0-.34z"/><path fill="#dbd7b9" d="M1620.72 1470.02c-1.22-1.8-2.47-3.61-3.75-5.41-4.36 1.43-8.68 2.85-12.94 4.28-1.28-1.82-2.6-3.66-3.94-5.49-4.3 1.41-8.55 2.83-12.74 4.23-1.34-1.86-2.72-3.72-4.13-5.58-4.22 1.39-8.38 2.78-12.49 4.16-1.4-1.9-2.83-3.8-4.3-5.69-4.12 1.37-8.19 2.72-12.18 4.07-1.45-1.94-2.93-3.88-4.46-5.82-4 1.33-7.93 2.65-11.8 3.96-1.5-1.99-3.03-3.98-4.6-5.96-3.86 1.28-7.63 2.56-11.35 3.84-1.53-2.04-3.1-4.09-4.72-6.13-3.69 1.24-7.31 2.47-10.85 3.7-1.56-2.1-3.16-4.22-4.81-6.32-3.5 1.18-6.92 2.36-10.26 3.55-1.58-2.17-3.2-4.35-4.86-6.53-3.29 1.13-6.49 2.26-9.61 3.4-1.06 2.31-2.15 4.63-3.29 6.98 38.64 9.2 88.29 14.16 140.71 17.35 2.13-2.18 4.25-4.39 6.37-6.59zM1362.11 1599.88c-.39 2.13-.79 4.23-1.18 6.33 4.5-2.03 8.98-4.06 13.43-6.07-.3 2.09-.6 4.16-.91 6.21 4.53-2 9.03-3.99 13.5-5.99-.22 2.04-.43 4.07-.66 6.08 4.55-1.98 9.08-3.95 13.6-5.92-.13 2-.27 3.98-.42 5.95 4.58-1.96 9.15-3.91 13.7-5.86-.06 1.96-.13 3.9-.21 5.83 4.61-1.95 9.21-3.88 13.8-5.81.01 1.92 0 3.82-.01 5.7 4.64-1.93 9.27-3.85 13.9-5.77.06 1.87.12 3.73.16 5.57 4.67-1.92 9.34-3.84 14-5.74.12 1.84.22 3.64.32 5.44 4.7-1.91 9.4-3.82 14.09-5.72.16 1.78.31 3.55.45 5.32 4.73-1.9 9.45-3.79 14.16-5.69 3.05-2.47 6.07-4.93 9.04-7.39-46.53 1.07-87.03.3-121.17-.98a541.23 541.23 0 0 1-9.59 8.51z"/><linearGradient id="a" x1="-1394.682" x2="-1218.285" y1="2567.864" y2="2567.864" gradientTransform="rotate(25.618 2363.925 8205.247)" gradientUnits="userSpaceOnUse"><stop offset="0" stop-color="#eacd1c"/><stop offset="1" stop-color="#d1ba28"/></linearGradient><path fill="url(#a)" d="M1485.06 1598.77c-46.52 1.33-87.04.87-121.57 0 44.81-52.1 76.55-108.5 113.13-145.53 39.7 9.39 90.31 14.33 143.29 17.65-14.69 40.59-63.47 85.35-134.85 127.88z"/><path fill="#231f20" d="M1559.5 1546.76c-.04-.01-.14-.06-.25-.1-.05.01-.19-.01-.29-.02-.11.01-.24.03-.31.03-.15.04-.3.07-.37.09-.34.1-.67.21-.99.33-.65.23-.15.04-.55.21-.47.2-.95.4-1.4.62-1.98.92-3.54 1.76-5.34 2.8-9.35 5.34-17.47 11.17-26.16 16.84-3.29 2.15-6.32 4.04-10.42 5.79-7.17 3.05-13.94 4.72-19.64 4.81-11.65.19-16.08-4.92-26.17-5.76-5.92-.49-13.22 1.48-20.88 3.87-8.35 2.61-16.58 5.25-23.28 5.46-6.2.19-8.4-2.46-11.46-4.51-1.15-.77-2.58-1.93-5.23-1.4-2.27.46-5.13 1.96-7.45 3.27-6.53 3.68-12.59 8.1-19.38 11.86-3.32 1.83-6.85 3.56-10.19 4.81-1.73.65-3.42 1.16-5.08 1.61-.38.48-.77.95-1.15 1.42 34.52.88 75.06 1.34 121.57 0 28.91-17.26 53.91-34.74 74.42-52.03.01 0 .01.01 0 0z" opacity=".1"/><path fill="#e8e6d4" d="M1454.66 1531.16c-.38.45-.88.86-1.54 1.19-.65.34-1.31.63-1.99.84-.63.22-1.29.46-1.97.71-.69.25-1.35.54-2.01.85-.66.31-1.27.66-1.84 1.04-.57.38-1.05.82-1.46 1.3-.36.42-.56.8-.6 1.14-.04.34-.02.67.05 1 .08.33.17.66.31 1.01.13.34.2.74.18 1.15-.01.42-.13.91-.35 1.44-.22.54-.65 1.17-1.3 1.89-.45.5-1.08 1.07-1.91 1.72-.83.65-1.76 1.3-2.79 1.95-1.03.66-2.13 1.31-3.3 1.93-1.17.63-2.31 1.19-3.43 1.7-1.12.5-2.18.92-3.2 1.24-1.02.32-1.87.49-2.55.52-.76.03-1.28-.13-1.54-.45-.27-.35-.08-.84.55-1.55.43-.47.96-.92 1.59-1.33.63-.41 1.3-.81 2.03-1.19.72-.38 1.47-.75 2.26-1.11.79-.36 1.53-.72 2.23-1.08.7-.36 1.35-.72 1.96-1.11.6-.38 1.09-.79 1.47-1.21.52-.59.79-1.19.82-1.8.03-.61.03-1.24-.02-1.89-.04-.65-.02-1.32.06-2 .09-.68.43-1.39 1.02-2.1.73-.87 1.77-1.79 3.12-2.76 1.35-.96 2.78-1.85 4.32-2.63 1.52-.79 3.05-1.44 4.59-1.96 1.52-.53 2.85-.77 3.95-.77.87 0 1.45.2 1.75.63.27.41.13.98-.46 1.69zM1471.77 1538.79c-.39.42-.96 1.03-1.71 1.81-.76.78-1.64 1.65-2.65 2.59s-2.1 1.91-3.28 2.91c-1.18.99-2.36 1.9-3.52 2.71-1.17.82-2.32 1.49-3.41 2.04-1.11.53-2.07.83-2.91.87-.79.03-1.35-.12-1.68-.43-.33-.32-.52-.71-.57-1.21-.06-.49-.01-1.01.13-1.57.13-.57.29-1.07.47-1.54.38-.98.73-1.97 1.07-2.93.33-.97.71-1.94 1.11-2.94-.25.27-.49.55-.74.83-.75.86-1.51 1.7-2.29 2.54-.77.84-1.61 1.68-2.52 2.52-.36.34-.78.73-1.25 1.18-.48.45-.97.9-1.51 1.34-.53.44-1.1.86-1.69 1.25-.59.39-1.18.68-1.76.88-.32.11-.59.17-.8.2-.21.03-.46.06-.72.11h-.11c-.58.03-.94-.11-1.06-.41-.11-.28-.09-.69.08-1.17.18-.48.45-1.03.85-1.63.39-.61.81-1.2 1.25-1.8.44-.59.87-1.14 1.3-1.63.42-.51.77-.9 1.03-1.2.4-.46 1.03-1.14 1.86-2.03.84-.88 1.8-1.88 2.89-2.95 1.09-1.09 2.26-2.18 3.48-3.32 1.22-1.14 2.44-2.16 3.65-3.08 1.2-.92 2.34-1.67 3.45-2.25 1.09-.58 2.06-.87 2.88-.88.8 0 1.31.22 1.56.69.24.47.33 1.01.28 1.65-.05.64-.22 1.3-.48 2s-.49 1.28-.66 1.74c-.35.91-.72 1.82-1.11 2.71-.38.9-.79 1.82-1.25 2.74-.01.03-.06.14-.13.32-.08.17-.17.37-.25.58-.1.24-.21.5-.32.78.23-.26.39-.44.47-.54.08-.11.16-.21.24-.29.09-.07.18-.2.3-.34s.31-.36.58-.65c.55-.64 1.11-1.28 1.66-1.93.55-.66 1.12-1.27 1.66-1.9.24-.27.58-.66 1.02-1.14.44-.48.93-1 1.48-1.56.55-.55 1.13-1.11 1.75-1.68.61-.57 1.25-1.07 1.88-1.53.64-.45 1.27-.83 1.9-1.12.63-.3 1.22-.45 1.78-.45.66-.01 1.08.17 1.24.52.17.36.17.82-.01 1.38-.17.55-.47 1.2-.9 1.88-.43.7-.89 1.38-1.38 2.05-.5.66-.98 1.29-1.47 1.87-.47.63-.86 1.09-1.16 1.41zM1487.59 1546c-.35.39-.86.83-1.46 1.37-.62.53-1.29 1.05-2.04 1.55-.74.5-1.52.92-2.32 1.28-.79.36-1.58.55-2.35.59-1.03.04-1.54-.18-1.54-.66-.01-.49.22-1.09.69-1.8s1.04-1.43 1.7-2.17c.67-.74 1.2-1.33 1.58-1.77-2.2.31-4.32.59-6.38.83-.47.44-1.1 1-1.89 1.66a27.6 27.6 0 0 1-2.61 1.93c-.94.63-1.91 1.17-2.92 1.64s-1.93.72-2.76.76c-.65.02-.99-.13-1.02-.45-.04-.33.07-.72.33-1.17.25-.46.59-.94 1.02-1.43.42-.49.79-.9 1.1-1.23 1.04-1.1 2.17-2.2 3.4-3.28 1.23-1.08 2.49-2.15 3.78-3.22.67-.57 1.48-1.22 2.43-1.98.94-.76 1.97-1.54 3.07-2.34 1.1-.8 2.26-1.6 3.48-2.38 1.21-.79 2.43-1.48 3.65-2.1 1.21-.62 2.43-1.13 3.65-1.53 1.21-.39 2.35-.6 3.43-.63 1.04-.03 1.83.13 2.31.42.49.31.79.7.9 1.21.11.51.06 1.09-.16 1.74s-.51 1.32-.88 1.99c-.37.67-.77 1.33-1.2 1.99-.43.65-.82 1.23-1.15 1.73-.79 1.21-1.65 2.43-2.58 3.68-.96 1.25-2.04 2.5-3.26 3.77zm-1.46-6.58c.2-.23.53-.61.98-1.12.43-.52.82-1.04 1.17-1.55s.56-.97.63-1.37c.08-.4-.13-.59-.62-.58-.28 0-.64.15-1.13.4-.48.26-1 .59-1.54.99-.55.39-1.11.83-1.69 1.31-.59.48-1.14.94-1.64 1.38-.51.44-.96.84-1.34 1.19-.38.36-.65.61-.82.76 1.72-.15 3.46-.35 5.24-.6.25-.26.5-.53.76-.81zM1518.8 1534.98a13.046 13.046 0 0 1-2.93 2.21c-.61.34-1.25.63-1.92.88-.66.25-1.34.38-2 .41-1 .05-1.64-.05-1.89-.25-.27-.21-.33-.49-.19-.83.13-.35.39-.72.75-1.11.36-.4.71-.76 1.01-1.12.3-.35.49-.63.55-.86.06-.22-.16-.33-.68-.31-.58.02-1.2.17-1.87.46-.68.28-1.38.65-2.09 1.08-.72.44-1.43.94-2.16 1.48-.73.54-1.41 1.08-2.03 1.62-.64.53-1.21 1.04-1.72 1.52s-.91.87-1.2 1.16c-.38.39-.81.86-1.29 1.4-.48.55-.85 1.05-1.11 1.54-.26.48-.33.89-.22 1.21.12.33.59.46 1.44.42.57-.03 1.16-.11 1.79-.22.63-.12 1.28-.26 1.93-.41.66-.15 1.32-.28 1.96-.4.64-.12 1.26-.19 1.82-.22.66-.03 1.03.11 1.12.43.09.31-.07.7-.51 1.12-.59.6-1.43 1.16-2.51 1.71-1.09.53-2.24 1.04-3.48 1.47-1.23.44-2.45.8-3.65 1.08-1.21.28-2.21.44-2.99.49-2.04.11-3.44-.09-4.24-.64-.8-.54-1.15-1.28-1.06-2.2.09-.93.52-1.99 1.3-3.17s1.73-2.37 2.85-3.55c.75-.79 1.68-1.66 2.79-2.61s2.32-1.9 3.66-2.86a59.77 59.77 0 0 1 4.24-2.78c1.5-.89 3.02-1.69 4.58-2.39 1.56-.69 3.1-1.27 4.67-1.71 1.55-.44 3.05-.68 4.49-.73 1.41-.04 2.37.14 2.9.55.53.42.77.96.69 1.61-.07.66-.38 1.4-.93 2.2-.53.81-1.16 1.58-1.87 2.32zM1529.7 1546.43c-.53.51-1.15.94-1.9 1.28-.75.34-1.54.54-2.38.6-.68.03-1.17-.05-1.46-.26-.3-.22-.5-.5-.6-.85-.09-.34-.11-.72-.05-1.11.07-.4.15-.74.22-1.04.18-.72.34-1.46.52-2.19.17-.74.36-1.48.57-2.23-1.21.38-2.42.77-3.63 1.15-.51.53-1.08 1.06-1.73 1.6-.65.54-1.27 1.08-1.87 1.61-.43.38-.93.77-1.49 1.22-.57.43-1.19.85-1.86 1.25-.67.4-1.39.73-2.14 1.02-.75.29-1.49.45-2.21.5-.66.04-1.12-.02-1.37-.17-.25-.15-.38-.37-.36-.62 0-.26.13-.57.37-.91.24-.34.56-.69.91-1.07.07-.08.15-.15.22-.22 1.09-1.09 2.27-2.19 3.55-3.3 1.28-1.1 2.47-2.22 3.62-3.32 1.48-1.45 2.97-2.9 4.45-4.35 1.49-1.45 3-2.89 4.51-4.34.35-.33.73-.65 1.18-.97.44-.31.92-.6 1.45-.85.51-.27 1.06-.47 1.63-.63.56-.17 1.14-.25 1.72-.28.9-.04 1.39.13 1.46.52.07.37-.08.84-.44 1.4-.36.56-.85 1.13-1.45 1.72-.6.6-1.09 1.1-1.48 1.5-1.12 1.14-2.29 2.28-3.5 3.44 1.28-.48 2.59-1.01 3.95-1.62 1.35-.6 2.62-1.2 3.81-1.81.73-.36 1.62-.86 2.72-1.48 1.09-.62 2.21-1.24 3.35-1.83 1.15-.59 2.28-1.11 3.4-1.57 1.13-.44 2.08-.7 2.88-.73.85-.05 1.34.08 1.45.35.12.28-.07.66-.55 1.14-.71.72-1.62 1.46-2.74 2.22-1.12.77-2.35 1.54-3.7 2.29-1.35.76-2.74 1.49-4.17 2.19-1.45.69-2.8 1.31-4.07 1.84-.03.8-.12 1.61-.25 2.44-.13.83-.29 1.64-.44 2.47-.03.27-.1.58-.2.9-.1.33-.24.67-.41 1.02-.17.35-.37.71-.61 1.06-.25.35-.54.69-.88 1.02zM1474.6 1524.58c14.95 0 31.02-.2 48.07-.67-.12.01 38.84-24.18 14.92-26.83-25.46-2.84-51.82 9.2-62.99 27.5z"/><path fill="#dbd7b9" d="M1508.75 1504.36c0-.01-.43-2.95 1.22-2.82 1.67.13-.61 3.17-1.22 2.82zM1519.65 1507.93c3.18-.61 3.89-.3 3.43.32-.45.61-5.35.05-3.43-.32zM1531.88 1508c2.58-.5 3.75.47 1.72 1-2.02.55-2.89-.77-1.72-1zM1506.27 1510.02c4.77-.52 5.02 1.56 1.07 1.28-3.95-.31-1.06-1.28-1.07-1.28zM1532.65 1500.5c4.96-.53 5.32 1.48 1.18 1.23-4.14-.27-1.18-1.24-1.18-1.23zM1505.45 1516.26c2.36-.66 4.59-.8 2.74.26-1.86 1.06-4.98.37-2.74-.26zM1518.29 1514.66c1.01 1.97-.23 2.73-1.18 1.35s.77-2.12 1.18-1.35zM1495.19 1514.06c5.7-.66 6.22-.02 3.67.41-2.54.44-6.28-.11-3.67-.41zM1490.73 1514.03c2.59-3.75 3.95-4.15 3.04-2.53-.92 1.63-4.23 4.24-3.04 2.53zM1495.95 1520.83c2.04-1.27 5.01-1.62 4.09-.63-.95.99-5.91 1.77-4.09.63zM1526.72 1513.58c4.46-.79 5.56-.01 2.78.22-2.78.21-2.77-.21-2.78-.22zM1502.69 1508.72c-2.39-.77 0-2.76 1.94-2.4 1.93.35.5 3.17-1.94 2.4zM1482.32 1520.21c-2.25-.77.2-2.83 2.03-2.48 1.83.35.26 3.26-2.03 2.48zM1515.37 1505.09c-2.48-.67-.61-2.44 1.79-2.74 2.4-.3-.81 3.01-1.79 2.74zM1518.55 1522.42c-2.43-.59-.41-2.39 2.03-2.75 2.45-.37-1.06 2.97-2.03 2.75z"/><path fill="#e8e6d4" d="M1529.68 1523.18c4.16.26 8.37.5 12.62.73.01 0 3.57-4.29 3.34-4.24-.34.06-16.07 3.53-15.96 3.51z"/><path fill="#dbd7b9" d="M1536.42 1517.93c5.97-2.77 11.99-5.53 18.07-8.28-.45-.72-.89-1.43-1.35-2.15-5.59 3.45-11.16 6.93-16.72 10.43zM1481.33 1510.42c1.12-2.86 2.18-5.71 3.17-8.55-2.84.92-5.65 1.86-8.44 2.78 1.76 1.94 3.52 3.87 5.27 5.77zM1473.38 1519.96c-3.46-1.33-6.84-2.7-10.16-4.1-1.07 1.91-2.17 3.83-3.3 5.75 4.39-.55 8.87-1.1 13.46-1.65z"/><path fill="#e8e6d4" d="M1470.75 1504.31c.28.66 2.02 6.18 2 6.18-2.67-.81-5.3-1.64-7.88-2.49 1.96-1.23 3.91-2.47 5.88-3.69z"/><path fill="#e6e7e8" d="M1072.14 1448.33c5.45 19.79-.36 38.66-12.98 42.14-12.62 3.48-27.27-9.75-32.72-29.55-5.45-19.79.36-38.66 12.98-42.14 12.62-3.47 27.27 9.76 32.72 29.55z"/><path fill="#006838" d="M1072.26 1448.82c.07 1.85-.12 3.69-.79 5.43-1.52 3.95-5.11 6.61-9.39 6.33-2.17-.14-4.26-.94-6.33-1.55-1.56-.46-3.24-1.2-3.72.77-1.02 4.15.7 8.74-2.49 12.25-3.57 3.93-8.29 2.66-12.77 1.44-1.75-.48-3.69-.9-5.16.04 7 12.42 17.86 19.61 27.55 16.94 12.52-3.45 18.32-22.03 13.1-41.65z" opacity=".1"/><path fill="#e6e7e8" d="M1044.59 1487.03v102.17c0 2.94 16.34 5.32 36.49 5.32 20.16 0 36.49-2.38 36.49-5.32v-102.17h-72.98z"/><path fill="#33232a" d="M1079.46 1505.04c-6.52 3.1-29.79-2.52-29.79-2.52 20.47 13.95 29.79 2.52 29.79 2.52zM1089.24 1517.64c-8.65 3.1-39.56-2.52-39.56-2.52 27.18 13.95 39.56 2.52 39.56 2.52zM1079.46 1562.02c-6.52 3.1-29.79-2.52-29.79-2.52 20.47 13.96 29.79 2.52 29.79 2.52zM1049.67 1572.1c27.19 13.95 39.56 2.52 39.56 2.52-8.65 3.1-39.56-2.52-39.56-2.52zM1057.35 1530.69c4.25.28 7.38 2.75 8.33 6.6-1.63-.06-3.26-.13-4.89-.22-.69-1.55-2.03-2.37-3.7-2.49-2.7-.19-4.68 1.58-4.9 4.67-.21 3.09 1.57 5.21 4.37 5.42 1.73.13 3.18-.53 4-2 1.66.09 3.31.17 4.97.23-1.15 3.78-4.62 5.97-9.12 5.64-5.59-.42-9.21-4.56-8.77-9.76.45-5.2 4.45-8.44 9.71-8.09zM1073.93 1534.86c2.14 0 3.67.92 4.47 2.15l-.03-1.99c1.47-.03 2.94-.07 4.41-.13.13 4.7.25 9.4.38 14.1-1.53.05-3.07.09-4.6.11l-.03-1.99c-.81 1.25-2.4 2.23-4.64 2.22-3.68-.02-6.56-2.92-6.46-7.35.11-4.42 2.98-7.1 6.5-7.12zm1.3 3.76c-1.67 0-3.19 1.2-3.21 3.44-.02 2.24 1.52 3.51 3.23 3.51 1.74-.01 3.24-1.26 3.21-3.51-.03-2.25-1.53-3.46-3.23-3.44zM1096.35 1540.48c-.13-1.92-1.3-2.88-2.99-2.75-1.69.13-2.73 1.28-2.64 3.2l.39 7.67c-1.53.1-3.07.18-4.6.26-.17-4.7-.35-9.41-.52-14.11 1.47-.08 2.94-.16 4.41-.27.03.63.06 1.25.1 1.88.82-1.25 2.32-2.2 4.25-2.37 3.31-.3 5.7 1.66 6.02 5.47.22 2.76.45 5.51.67 8.26-1.52.16-3.04.31-4.56.45-.19-2.57-.36-5.13-.53-7.69z" opacity=".35"/><path fill="#006838" d="M1073.62 1487.03c.86.6 1.71 1.21 2.63 1.75 2.53 1.47 5.29 2.81 8.07 3.72 2.7.89 5.62 1.11 8.39 1.67 2.37.48 4.96 1.03 6.98 2.44 1.74 1.22 2.98 3.17 4.02 4.99 2.28 3.96 4.33 9.3 3.52 13.95-.59 3.4-3.13 6.37-5.91 8.25-1.78 1.21-4.4 1.94-4.16 4.46.24 2.45 1.65 4.86 2.69 7.03 1.09 2.27 2.28 4.48 3.37 6.75 1.76 3.65 3.35 7.68 2.64 11.8-.71 4.11-3.88 9.58-7.99 10.99-.67.23-1.92.11-2.46.5-.79.57-.79 1.93-.72 2.76.17 2 .95 3.92 1.19 5.92.51 4.29-1.81 8.14-6.09 9.32-4.32 1.19-8.54-.77-12.85-.79-2.29-.01-6.32.07-6.95 2.81-.38 1.66-.23 3.53-.29 5.22-.04 1.23-.17 2.45-.27 3.67 3.66.18 7.56.28 11.63.28 20.16 0 36.49-2.38 36.49-5.32v-102.16h-43.93z" opacity=".1"/><ellipse cx="1081.09" cy="1487.03" fill="#4e5442" rx="36.49" ry="5.32"/><path fill="#3f4732" d="M1055.97 1490.89c2.16-.19 4.3-.41 6.25-.33 1.11.05 3.55.43 4.45-.56.64-.71.57-2.19.79-3.07.68-2.73 3.19-2.81 5.56-2.64 3.47.24 6.69.15 10.09-.64 3.75-.88 7.54-1.35 11.39-1.46.56-.02 1.21 0 1.91.02-4.66-.32-9.84-.5-15.32-.5-20.15 0-36.49 2.38-36.49 5.32-.01 1.52 4.38 2.89 11.37 3.86z"/><path fill="#dae8c8" d="M1596.43 1592.88c-53.28 30.7-178.95 72.59-332.85 72.09-153.95.5-279.67-41.44-332.9-72.09-19.76-11.34-29.54-21.17-27.12-26.72 1.76-4.89 10.64-6.91 25.41-7.01 53.18-.4 183.04 23.19 334.62 22.23 151.58.96 281.43-22.63 334.56-22.23 14.82.1 23.69 2.12 25.41 7.01 2.4 5.54-7.38 15.37-27.13 26.72z"/><path d="M1623.55 1566.16c-1.71-4.89-10.59-6.91-25.41-7.01-53.13-.4-182.98 23.19-334.56 22.23-94.14.59-179.88-8.28-244.09-14.99 7.48 3.49 15.3 6.29 22.88 8.67 23.18 7.28 47.24 11.84 71.2 15.62 29.67 4.68 59.61 7.45 89.63 8.55 31.5 1.16 62.96-.25 94.45.25 15 .24 31.02.08 45.58 4.07 12.45 3.41 24.14 10.18 37.14 11.42 7.49.71 15.28-.61 22.64-1.9 7.31-1.27 14.53-2.98 21.7-4.88 14.55-3.85 28.88-8.49 43.51-12.04 14.99-3.64 45.11-11.62 48.83 11.41 2.39 14.82-18.2 18.99-28.65 21.2-3.35.71-6.71 1.33-10.05 2.07-2.13.47-4.56.84-6.44 2.01-2.88 1.79-4.89 4.92-6.38 8.29 58.36-14.33 103.92-32.73 130.9-48.27 19.75-11.33 29.53-21.16 27.12-26.7z" opacity=".1"/><path fill="#61ba7a" d="M741.69 1992.98c-19.01 43.12-61.23 79.67-58.44 90.85 2.72 11.81 22.93 17.88 36.85 32.24 8.15 8.41 14.16 19.68 13.37 36.66-1.2 21.21-22.2 36.42-43.81 48.35-10.23 5.63-20.6 10.52-29.05 14.96a1218.29 1218.29 0 0 1-39.61-34.55c-.95-.86-1.9-1.73-2.85-2.61-10.09-9.24-19.97-18.6-29.62-28.11-1.6-1.56-3.19-3.13-4.78-4.72-8.32-8.27-16.47-16.64-24.45-25.1a1040.32 1040.32 0 0 1-17.23-18.73l-2.33-2.6a984.92 984.92 0 0 1-39.5-47.2c30.59-29.49 50 7.29 86.13-.07 37.99-4.8 81.21-208.04 143.61-147.28.04.04.08.08.12.11.61.59 1.21 1.21 1.82 1.85 5.45 6.27 9.56 12.55 12.5 18.94 10.45 22.42 6.7 45.49-2.73 67.01z"/><path fill="#4da061" d="M730.09 2143.84c-36.54 12.06-72.9 24.63-109.09 37.65-.95-.86-1.9-1.73-2.85-2.61 37.12-12.23 74.45-23.94 111.94-35.04zM730.31 1904.79c-.01.03-.08.16-.21.39-3.93 6.72-61.15 99.15-112.71 192.15-9.97 18.01-19.73 36.02-28.86 53.44-1.6-1.56-3.19-3.13-4.78-4.72 4.85-10.03 9.64-19.84 14.36-29.38 52.8-106.9 97.1-182.6 131.87-211.6.11-.1.22-.19.33-.28zM542.07 2102.22l-2.33-2.6c-3.39-18.98-6.78-38.02-10.15-57.18 4.16 20.03 8.33 39.94 12.48 59.78z"/><path fill="#61ba7a" d="M3458.03 1694.72c-4.59-2.92-8.45-7.01-11.83-11.84-13.87-19.84-19.68-51.69-34.25-63.58-22.4-17.41-46.85 28.91-64.51 18.04-18.27-10.58-6-72.63-23.82-85.29-18.69-12.47-29.36 39.52-66.04 14.12-37.25-25.27-6.05-50.72-17.47-85.54-8.94-34.94-177.79-41.44-137.41-110.36.02-.04.04-.09.07-.13.4-.67.81-1.35 1.25-2.04 4.3-6.18 8.79-11.11 13.52-14.95 16.6-13.6 35.61-13.95 54.14-8.7 37.15 10.64 72.13 44.22 80.73 39.72 9.11-4.55 11.28-24.59 20.94-40.09 5.66-9.1 13.9-16.65 27.63-18.75 17.19-2.45 32.2 14.76 44.67 33.09 14.08 20.78 24.88 43.01 31.75 39.51 6.26-3.2 10-12.46 15.55-22.29 2.9-5.19 6.27-10.53 10.71-15.24l.01-.01c3.95-4.2 8.74-7.89 14.82-10.56 5.1-2.23 10.37-.71 15.68 3.08 4.48 3.2 8.99 8.02 13.48 13.59 7.16 36.29 12.34 72.75 15.52 109.24.34 3.84.65 7.69.94 11.53.57 7.5 1.05 15.01 1.44 22.51.1 1.7.18 3.39.26 5.09.3 6.23.54 12.46.72 18.68.07 2.04.12 4.07.16 6.11 1.2 51.92-1.67 103.73-8.66 155.06z"/><path fill="#4da061" d="M3419.21 1357.26c-.26-.8-.51-1.59-.77-2.39.28.79.56 1.59.84 2.38 9.78 27.86 19.88 55.64 30.29 83.13 4.24 11.16 8.47 22.31 12.82 33.36.26.67.52 1.33.78 2 .34 3.84.65 7.69.94 11.53-2.18-5.92-4.34-11.84-6.49-17.77-3.94-10.92-7.87-21.83-11.69-32.78-9.21-26.32-18.13-52.78-26.72-79.46zM3362.83 1482.56c-8.88 3.88-17.79 7.69-26.74 11.59-31.8 13.76-63.9 27.67-96.33 41.57 31.32-14.72 62.33-29.36 93.17-43.89 7.93-3.74 15.81-7.47 23.68-11.19-23.37-7.42-45.54-14.73-66.46-21.88-92.84-31.7-159.53-60.67-187.45-88.49l-.27-.27c.02 0 .14.05.34.14 5.94 2.56 87.77 40.86 169.28 73.73 30.23 12.16 60.42 23.65 86.64 32.24A3944.745 3944.745 0 0 1 3294.3 1330c22.45 49.9 45.79 99.21 69.96 147.95 35.85 11.47 70.44 22.19 101.29 31.83.1 1.7.18 3.39.26 5.09-21.4-6.64-44.57-13.84-68.71-21.39-11.71-3.7-23.01-7.27-34.27-10.92zM3466.69 1539.66c-1.79 1.44-3.67 2.95-5.62 4.5-7.05 5.6-15.03 11.95-23.39 18.38-32.36 25.03-70.65 52.57-85.23 54.18 0-.08 42.59-30.74 79.59-57.76 12.85-9.4 25.01-18.34 34.49-25.41.07 2.04.12 4.07.16 6.11z"/><path fill="#506037" d="M845.24 2151.29c-1.65 1.55-3.35 3.2-5.06 4.86 7.92-1.83 56.21-12.43 57.36 1.46 1.17 14.17-51.14.78-57.84-.99-7.64 7.43-15.79 15.78-24.3 24.82 1.18-.33 59.44-16.2 57.09-1.81-2.36 14.44-56.4 2.02-57.13 1.85-10.13 10.76-20.7 22.42-31.37 34.47 14.08-3.54 67.21-16.02 63.18-1.29-4.13 15.1-53.58 5.05-64.39 2.66a2590.729 2590.729 0 0 0-31.22 36.06c8.24-2.94 58.46-20.26 60.45-6.23 2.02 14.28-53.7 7.7-60.92 6.79-5.67 6.66-11.22 13.25-16.63 19.71-.81-.59-1.62-1.18-2.43-1.78 5.07-6.04 10.28-12.22 15.55-18.43-1.95-14.82-10.25-84.96 7.08-83.8 16.56 1.12-.08 63.53-5.26 81.66 10.15-11.94 20.58-24.03 31-35.82-1.44-9.76-9.87-71.03 5.75-66.76 14.93 4.08-.72 53.72-4.68 65.55 11.36-12.83 22.61-25.22 33.35-36.59-1.57-13.35-5.91-57.46 6.06-53.13 10.92 3.96 1.56 35.93-3.19 50.12 9.61-10.09 18.73-19.24 27.07-27.05-1.48-12.22-4.74-47.2 5.85-50.85 10.21-3.52.85 33.34-3.42 48.6 7.64-7.02 14.59-12.89 20.5-17.05l.04.06c12.58-15.74 47.19-56.45 54.88-38.48 8.25 19.26-43.23 38.7-56.44 43.33-6.05 4.57-12.97 10.56-20.58 17.73-.16.55-.27.91-.27.91s-.03-.21-.08-.58zM3424.76 1314.45c-9.86 4.35-71.84 30.98-71.88 13.33-.03-16.89 56.71-14.84 70.29-14.11-16.79-8.22-33.08-16.46-48.15-24.46-13.58 5.54-58.71 22.9-57.62 9.05.99-12.63 37.33-12.07 53.62-11.18-13.39-7.18-25.66-14.12-36.29-20.63-12.43 5.11-48.26 18.69-55.17 8.61-6.66-9.72 34.81-10.57 52.1-10.51-9.61-5.99-17.79-11.6-23.88-16.6l.05-.06c-20.2-8.67-73.04-33.25-56.38-46.55 17.86-14.26 53.23 34.23 61.93 46.78 6.57 5.04 14.87 10.58 24.61 16.49.63.02 1.04.03 1.04.03s-.2.09-.59.25c2.12 1.28 4.34 2.59 6.58 3.91-4.22-7.79-29.37-55.5-15.1-60.74 14.55-5.34 15.66 53.55 15.74 61.11 10.03 5.87 21.18 12.03 33.14 18.35-.68-1.14-34.27-57.81-18.46-59.5 15.87-1.71 18.48 58.72 18.52 59.53 14.25 7.53 29.58 15.26 45.35 22.98-7.81-13.77-36.35-66.02-19.69-66.06 17.08-.03 20.85 54.88 21.48 66.94 3.48 1.7 6.98 3.4 10.49 5.09v.01c.35 1.37.69 2.74 1.03 4.12-4.27-2.05-8.53-4.11-12.76-6.18zM3444.16 1349.55c-3.25 1.14-6.61 2.28-9.99 3.36-4.98 1.59-10.02 3.08-14.89 4.34-.02 0-.05.01-.07.01-5.51 1.42-10.81 2.52-15.54 3.13l-.01.01c-10.63 1.37-18.45.23-19.64-5.58-2.5-12.21 30.13-16.31 57.4-17.61.94 4.11 1.85 8.22 2.74 12.34z"/></svg>